<?xml version="1.0" encoding="UTF-8"?>
<svg version="1.1" xmlns="http://www.w3.org/2000/svg" width="1200" height="1200">
<path d="M0 0 C1.43676199 0.1794088 2.87361434 0.35809516 4.31054688 0.53613281 C73.01474685 9.13531979 139.03386877 29.09965971 201 60 C202.0297998 60.51288574 203.05959961 61.02577148 204.12060547 61.55419922 C243.41932336 81.25574362 280.2980658 105.77524691 314 134 C314.75676025 134.62938477 314.75676025 134.62938477 315.52880859 135.27148438 C323.0571868 141.53560714 330.36754315 147.99079033 337.54248047 154.65576172 C338.94599244 155.95019001 340.36529883 157.22742854 341.78515625 158.50390625 C348.13647937 164.2262125 354.25716539 170.15250185 360.3125 176.1875 C361.06547363 176.93588135 361.81844727 177.6842627 362.59423828 178.45532227 C366.69414407 182.5665688 370.62271248 186.76768441 374.41186523 191.16674805 C376.67135871 193.7749781 379.02293458 196.28738472 381.375 198.8125 C386.49000206 204.35659827 391.28724722 210.10905902 396 216 C396.91076019 217.11905814 397.82225476 218.23751888 398.734375 219.35546875 C424.32457923 250.84383488 446.17534909 285.07929882 465 321 C465.49064941 321.93602051 465.98129883 322.87204102 466.48681641 323.83642578 C488.7436485 366.62020937 504.76032766 412.16497601 516 459 C516.27440918 460.13808105 516.54881836 461.27616211 516.83154297 462.44873047 C521.699097 482.96951949 524.9468918 503.75297666 527.69146729 524.65124512 C527.88676696 526.13799532 528.08435416 527.62444835 528.28509521 529.11047363 C534.23711328 573.31886005 533.79660399 621.80790206 528 666 C527.82050118 667.4352858 527.64181873 668.87067389 527.46386719 670.30615234 C518.652634 740.70018601 497.62932619 807.58240628 466 871 C465.52062988 871.96276855 465.04125977 872.92553711 464.54736328 873.91748047 C445.52146568 911.85280456 421.2304552 947.47605877 394 980 C393.58572754 980.49918945 393.17145508 980.99837891 392.74462891 981.51269531 C386.21225549 989.38250024 379.42881697 996.96777485 372.44677734 1004.43994141 C370.20910053 1006.85282613 368.01628049 1009.3061708 365.8125 1011.75 C361.10029542 1016.89370006 356.23618574 1021.87118962 351.3125 1026.8125 C350.61165283 1027.51793945 349.91080566 1028.22337891 349.1887207 1028.95019531 C345.2022121 1032.92498027 341.11395166 1036.71817381 336.85083008 1040.39428711 C334.23802246 1042.66106401 331.71864106 1045.01732176 329.1875 1047.375 C323.64340173 1052.49000206 317.89094098 1057.28724722 312 1062 C310.88094186 1062.91076019 309.76248112 1063.82225476 308.64453125 1064.734375 C277.15616512 1090.32457923 242.92070118 1112.17534909 207 1131 C206.06397949 1131.49064941 205.12795898 1131.98129883 204.16357422 1132.48681641 C127.0422821 1172.60658857 37.14141406 1196.90785262 -50.109375 1197.203125 C-51.51735973 1197.21014757 -52.92534414 1197.21723438 -54.33332825 1197.22438049 C-58.80555686 1197.24377075 -63.27773358 1197.24881435 -67.75 1197.25 C-68.51200085 1197.25044186 -69.27400169 1197.25088371 -70.05909348 1197.25133896 C-92.84568898 1197.25826886 -115.37119103 1196.94346817 -138 1194 C-139.41524673 1193.82570058 -140.83061576 1193.65239177 -142.24609375 1193.47998047 C-164.05716659 1190.79740902 -185.58239206 1186.90876653 -207 1182 C-207.65166138 1181.85067017 -208.30332275 1181.70134033 -208.97473145 1181.54748535 C-231.12041883 1176.43480296 -252.59046321 1169.57225421 -274 1162 C-274.99670715 1161.64778381 -274.99670715 1161.64778381 -276.0135498 1161.28845215 C-294.86451711 1154.60206348 -313.00696578 1146.72196617 -331 1138 C-332.56790283 1137.24783203 -332.56790283 1137.24783203 -334.16748047 1136.48046875 C-349.5731794 1129.07205017 -364.36644372 1120.82883774 -379 1112 C-379.91410645 1111.4519873 -380.82821289 1110.90397461 -381.77001953 1110.33935547 C-406.48298439 1095.48478743 -429.9417924 1078.57533272 -452 1060 C-453.02841846 1059.14555958 -454.05707794 1058.29140922 -455.0859375 1057.4375 C-461.90155223 1051.75391166 -468.48713431 1045.86512746 -474.97265625 1039.80859375 C-477.4814994 1037.46820262 -480.04306933 1035.19724868 -482.625 1032.9375 C-487.81992372 1028.28175288 -492.74783489 1023.36161379 -497.6875 1018.4375 C-498.49590332 1017.63368896 -499.30430664 1016.82987793 -500.13720703 1016.00170898 C-504.39729812 1011.73066763 -508.50010042 1007.38461187 -512.43383789 1002.8112793 C-514.68418097 1000.2087391 -517.0299538 997.70507963 -519.375 995.1875 C-524.49000206 989.64340173 -529.28724722 983.89094098 -534 978 C-534.91076019 976.88094186 -535.82225476 975.76248112 -536.734375 974.64453125 C-562.32457923 943.15616512 -584.17534909 908.92070118 -603 873 C-603.49064941 872.06397949 -603.98129883 871.12795898 -604.48681641 870.16357422 C-626.7436485 827.37979063 -642.76032766 781.83502399 -654 735 C-654.41161377 733.29287842 -654.41161377 733.29287842 -654.83154297 731.55126953 C-659.69942677 711.02909025 -662.94545562 690.24494813 -665.69146729 669.34552002 C-665.88658462 667.86220369 -666.08414538 666.37920493 -666.28509521 664.89666748 C-672.18789172 621.25211569 -672.16130525 572.71912011 -666.27862549 529.07421875 C-665.97635672 526.82398835 -665.68695291 524.57228335 -665.39794922 522.3203125 C-658.10304487 466.17813599 -643.97677771 410.8432283 -621 359 C-620.3507959 357.53240234 -620.3507959 357.53240234 -619.68847656 356.03515625 C-609.10526669 332.25578915 -597.44789071 309.28950981 -584 287 C-583.4519873 286.08589355 -582.90397461 285.17178711 -582.33935547 284.22998047 C-567.48532197 259.51790489 -550.57798131 236.05496129 -532 214 C-531.13390387 212.95981082 -530.26803127 211.91943551 -529.40234375 210.87890625 C-523.56729245 203.89444822 -517.53772122 197.12489277 -511.34423828 190.45751953 C-510.04980999 189.05400756 -508.77257146 187.63470117 -507.49609375 186.21484375 C-501.7737875 179.86352063 -495.84749815 173.74283461 -489.8125 167.6875 C-489.06411865 166.93452637 -488.3157373 166.18155273 -487.54467773 165.40576172 C-483.4334312 161.30585593 -479.23231559 157.37728752 -474.83325195 153.58813477 C-472.2250219 151.32864129 -469.71261528 148.97706542 -467.1875 146.625 C-461.64340173 141.50999794 -455.89094098 136.71275278 -450 132 C-448.88094186 131.08923981 -447.76248112 130.17774524 -446.64453125 129.265625 C-415.15616512 103.67542077 -380.92070118 81.82465091 -345 63 C-344.06397949 62.50935059 -343.12795898 62.01870117 -342.16357422 61.51318359 C-278.75289028 28.52589665 -208.9026444 8.25160086 -138 0 C-136.82695313 -0.14953125 -135.65390625 -0.2990625 -134.4453125 -0.453125 C-90.82626693 -5.89378015 -43.56688328 -5.69077278 0 0 Z " fill="#307FDC" transform="translate(669,3)"/>
<path d="M0 0 C0.93139801 -0.00701431 1.86279602 -0.01402863 2.82241821 -0.02125549 C5.82176594 -0.03869048 8.82091592 -0.0451103 11.8203125 -0.046875 C13.35981567 -0.04788712 13.35981567 -0.04788712 14.93041992 -0.04891968 C39.24884043 -0.02355045 62.34386462 2.09958067 85.9453125 8.203125 C86.96753906 8.44804687 87.98976563 8.69296875 89.04296875 8.9453125 C131.0909065 19.47354421 168.58836367 42.77468975 191.61914062 79.96923828 C203.44100946 99.88273236 208.58545108 121.98744493 208.3203125 144.953125 C208.31499512 145.69457764 208.30967773 146.43603027 208.30419922 147.19995117 C208.02574414 180.46105313 199.17180284 214.24693362 178.9453125 241.203125 C178.54231934 241.74984863 178.13932617 242.29657227 177.72412109 242.85986328 C160.04957425 266.72947506 138.51361273 282.71170484 109.9453125 291.203125 C108.87990234 291.57244141 108.87990234 291.57244141 107.79296875 291.94921875 C100.0985334 294.39056038 88.59520063 294.95128734 81.1953125 291.515625 C77.44654535 288.84823299 74.99900105 286.3105021 72.9453125 282.203125 C70.68075538 264.67854094 80.39556966 250.21502059 88.02612305 235.1472168 C106.15011533 199.10575111 118.3778136 154.90998599 106.55859375 114.84375 C99.62924833 93.90365914 86.5215304 76.66667071 66.9453125 66.203125 C63.00712293 64.34275324 59.02752526 62.71805381 54.9453125 61.203125 C54.20023438 60.90664063 53.45515625 60.61015625 52.6875 60.3046875 C41.39039941 56.09432898 29.05019236 55.8374946 17.1328125 55.890625 C15.15897583 55.89799683 15.15897583 55.89799683 13.14526367 55.90551758 C3.39485646 56.02280395 -5.596427 56.83282899 -15.0546875 59.203125 C-15.80717773 59.38004883 -16.55966797 59.55697266 -17.33496094 59.73925781 C-56.62449328 68.99796324 -90.93455798 89.41878124 -120.0546875 117.203125 C-121.7386846 118.68627841 -123.4261139 120.16554522 -125.1171875 121.640625 C-176.60909886 167.93383377 -207.38968009 238.33002293 -224.23803711 304.07446289 C-224.82132428 306.30908924 -225.42024532 308.5396586 -226.02954102 310.76733398 C-228.35951939 319.2984268 -230.35549241 327.82489297 -231.9921875 336.515625 C-232.11653168 337.17311737 -232.24087585 337.83060974 -232.36898804 338.50802612 C-234.71083089 351.02966734 -236.37303727 363.61774617 -237.8671875 376.265625 C-237.97223602 377.15077789 -238.07728455 378.03593079 -238.18551636 378.94790649 C-238.48798956 381.52319414 -238.78303368 384.09919449 -239.07421875 386.67578125 C-239.15936737 387.41552185 -239.24451599 388.15526245 -239.33224487 388.91741943 C-240.71403397 401.51607463 -241.2300413 414.11676987 -241.29296875 426.78515625 C-241.29704428 427.50124243 -241.3011198 428.21732861 -241.30531883 428.95511436 C-241.32599243 432.76149555 -241.34036128 436.56784292 -241.34985352 440.37426758 C-241.35860563 443.43469819 -241.37924702 446.49465868 -241.41137695 449.55493164 C-241.58301764 466.30653836 -241.23315747 482.80126162 -239.23046875 499.44921875 C-239.14872217 500.13197184 -239.06697559 500.81472492 -238.98275185 501.5181675 C-232.5170597 554.23105223 -213.71084411 605.50887214 -179.0546875 646.203125 C-178.37535156 647.00621094 -177.69601562 647.80929687 -176.99609375 648.63671875 C-172.67756124 653.62870662 -168.1435284 658.00893516 -163.0546875 662.203125 C-162.30735352 662.84290283 -162.30735352 662.84290283 -161.54492188 663.49560547 C-135.24602567 686.00109449 -105.05361197 697.57205271 -71.0546875 702.203125 C-69.91990967 702.35890015 -69.91990967 702.35890015 -68.76220703 702.51782227 C-48.73298412 705.01417257 -28.77717536 702.91424599 -9.0546875 699.203125 C-8.12849609 699.03184082 -7.20230469 698.86055664 -6.24804688 698.68408203 C14.83281811 694.63515575 35.13360252 686.45315922 53.9453125 676.203125 C54.59081055 675.85958984 55.23630859 675.51605469 55.90136719 675.16210938 C75.33184625 664.80802068 93.10856479 651.87157713 109.15234375 636.80859375 C111.68534704 634.44563823 114.27127155 632.16573555 116.8828125 629.890625 C126.84197132 620.94019127 135.69756794 610.72751971 143.9453125 600.203125 C144.66388428 599.29336914 144.66388428 599.29336914 145.39697266 598.36523438 C161.13102063 578.39264653 174.37369699 557.21521088 186.25366211 534.76513672 C196.17567444 516.15503284 196.17567444 516.15503284 201.9453125 513.203125 C205.24185431 512.74198305 207.8356881 513.00385006 210.9453125 514.203125 C214.66322039 517.31289926 217.40765574 520.59015471 218.9453125 525.203125 C222.56935084 575.03365211 185.78418747 627.10207493 155.48339844 663.35644531 C154.05339917 665.07335237 152.64239302 666.80412774 151.234375 668.5390625 C144.87410813 676.27194124 137.9379386 683.41965601 130.8828125 690.515625 C129.97281494 691.4348877 129.06281738 692.35415039 128.12524414 693.30126953 C122.03739092 699.36120436 115.65333705 704.84552725 108.9453125 710.203125 C107.90605856 711.07826287 106.87094049 711.95838984 105.84375 712.84765625 C78.95800693 735.94608877 47.11884605 753.08639717 13.9453125 765.203125 C13.03491211 765.53683105 12.12451172 765.87053711 11.18652344 766.21435547 C-47.75427214 787.38231681 -117.17877898 785.23553672 -176.0546875 765.203125 C-176.73708496 764.97157715 -177.41948242 764.7400293 -178.12255859 764.50146484 C-224.59441505 748.45289723 -268.23008746 718.62203571 -298.0546875 679.203125 C-298.46460938 678.66961426 -298.87453125 678.13610352 -299.296875 677.58642578 C-349.81268612 611.65806135 -369.64601058 528.27234853 -369.3671875 446.328125 C-369.36569702 445.22982361 -369.36420654 444.13152222 -369.3626709 442.99993896 C-369.31569182 423.58881537 -368.33936491 404.47536647 -366.0546875 385.203125 C-365.91015137 383.945 -365.76561523 382.686875 -365.61669922 381.390625 C-363.46718462 363.10903906 -360.10460198 345.15372701 -356.0546875 327.203125 C-355.85262695 326.29836426 -355.65056641 325.39360352 -355.44238281 324.46142578 C-336.44803824 240.6215004 -293.32271642 164.57784771 -232.8671875 103.890625 C-232.02357666 103.04234131 -231.17996582 102.19405762 -230.31079102 101.32006836 C-225.38706776 96.40891426 -220.3681518 91.68985237 -215.0546875 87.203125 C-214.45019775 86.69193115 -213.84570801 86.1807373 -213.22290039 85.65405273 C-187.67189933 64.25796516 -160.02684458 46.70306511 -130.0546875 32.203125 C-129.13357178 31.75308105 -129.13357178 31.75308105 -128.19384766 31.29394531 C-94.36800763 14.81676321 -57.42172647 5.0974807 -20.0546875 1.203125 C-19.33265137 1.12093719 -18.61061523 1.03874939 -17.86669922 0.95407104 C-11.89682487 0.30404041 -6.00303686 0.03048131 0 0 Z " fill="#FEFEFE" transform="translate(654.0546875,209.796875)"/>
</svg>
