<?xml version="1.0" encoding="UTF-8"?>
<svg version="1.1" xmlns="http://www.w3.org/2000/svg" width="2048" height="2048">
<path d="M0 0 C595.32 0 1190.64 0 1804 0 C1804 6.5620492 1803.97664247 12.63635641 1803.39955425 19.09390736 C1803.33449485 19.83693163 1803.26943544 20.57995591 1803.20240454 21.34549607 C1802.98512288 23.81351026 1802.76096425 26.28084842 1802.53678894 28.74824524 C1802.37639385 30.55358072 1802.21642668 32.35895427 1802.05684632 34.16436195 C1801.61648565 39.13225214 1801.1700588 44.09958136 1800.72265479 49.0668415 C1800.23591032 54.48298456 1799.75484377 59.89963239 1799.27305794 65.31621838 C1798.4254063 74.8373144 1797.57414145 84.35808205 1796.72054482 93.87864685 C1795.44566349 108.09831234 1794.17645778 122.3184806 1792.90843522 136.53875913 C1790.75521943 160.68533444 1788.59736295 184.83149326 1786.43719482 208.97744751 C1784.25728017 233.34440211 1782.07956089 257.71155151 1779.90460205 282.07894897 C1779.83620677 282.84521678 1779.76781149 283.61148459 1779.69734363 284.40097263 C1778.86063332 293.77513613 1778.02401253 303.14930763 1777.18741917 312.52348157 C1775.90460334 326.89757876 1774.62158217 341.27165763 1773.33852492 355.64573327 C1773.19397938 357.26507743 1773.04943463 358.88442166 1772.90489068 360.50376597 C1770.68443238 385.37982552 1768.4629805 410.2557962 1766.24076534 435.13169887 C1765.86214045 439.3701037 1765.48352175 443.60850909 1765.10490298 447.84691447 C1764.99219061 449.1086605 1764.99219061 449.1086605 1764.87720121 450.39589634 C1757.36032888 534.54279076 1749.85389309 618.69061102 1740.99690449 718.09287891 C1740.54230533 723.19495849 1740.08769675 728.29703723 1739.6330862 733.3991158 C1736.96355283 763.3592214 1734.2941031 793.31933445 1731.62481703 823.27946209 C1727.24926434 872.39072963 1722.87281481 921.50191719 1718.49560547 970.61303711 C1718.41923829 971.46985703 1718.34287111 972.32667695 1718.26418978 973.20946111 C1716.33007204 994.90974759 1714.39590608 1016.61002978 1712.46171972 1038.31031014 C1711.37718999 1050.47801527 1710.29267457 1062.64572168 1709.20816803 1074.81342888 C1708.89820276 1078.29110787 1708.58823746 1081.76878687 1708.27827215 1085.24646586 C1708.20150535 1086.1077568 1708.12473854 1086.96904774 1708.04564547 1087.8564384 C1700.03427848 1177.74054604 1692.02243845 1267.62461152 1641 1840 C1639.73638618 1840.47980914 1638.47219634 1840.95810147 1637.20777035 1841.43576622 C1636.50383772 1841.70228032 1635.79990509 1841.96879443 1635.07464117 1842.24338472 C1632.20076285 1843.29147934 1629.28854808 1844.13645748 1626.34399414 1844.96337891 C1625.72301063 1845.13879904 1625.10202711 1845.31421917 1624.46222591 1845.49495506 C1622.40411286 1846.0754475 1620.3446554 1846.65100886 1618.28515625 1847.2265625 C1616.79321042 1847.64626779 1615.30135085 1848.06627984 1613.80957031 1848.48657227 C1609.74827077 1849.62986065 1605.68577721 1850.76885216 1601.62306595 1851.90711212 C1597.28437296 1853.12352098 1592.94681812 1854.34397545 1588.60913086 1855.56396484 C1580.26460089 1857.91023443 1571.91907528 1860.25294226 1563.5731802 1862.59435081 C1554.1598664 1865.23535674 1544.74750943 1867.87976387 1535.33526611 1870.52458191 C1523.12486677 1873.95565868 1510.91429341 1877.38611438 1498.703125 1880.81445312 C1475.81952227 1887.23929403 1452.93931121 1893.67602159 1430.0625 1900.125 C1403.8408036 1907.51682264 1377.61147716 1914.88119168 1351.37901688 1922.23471832 C1326.74785093 1929.13941735 1302.12088059 1936.05871495 1277.5 1943 C1252.00582197 1950.18749097 1226.50484103 1957.35044079 1201 1964.5 C1175.64122412 1971.60870309 1150.28595582 1978.72958219 1124.9375 1985.875 C1098.50381627 1993.32610831 1072.0658197 2000.76175305 1045.625 2008.1875 C1044.24398542 2008.57535738 1044.24398542 2008.57535738 1042.83507156 2008.97105026 C1032.48191085 2011.87872262 1022.12867148 2014.78611485 1011.77539062 2017.69335938 C994.30492011 2022.59914494 976.83465695 2027.50566877 959.3645153 2032.41262531 C953.43623447 2034.07773234 947.50790838 2035.7426781 941.57954407 2037.40748787 C937.91937817 2038.43537157 934.25924864 2039.46338476 930.59912872 2040.49143219 C928.90415214 2040.96748524 927.20916048 2041.44348462 925.51415253 2041.91942596 C923.1934762 2042.57105725 920.87285467 2043.22288332 918.55224609 2043.87475586 C917.55107978 2044.1558006 917.55107978 2044.1558006 916.52968788 2044.442523 C913.43245284 2045.31276069 910.34159725 2046.19569964 907.25765991 2047.11235046 C898.87348913 2049.3968754 891.90410944 2047.14279394 883.796875 2044.7578125 C881.91478046 2044.21876175 880.03268524 2043.67971334 878.15056896 2043.14073849 C876.11045137 2042.55431911 874.07190556 2041.96270262 872.03372192 2041.36959839 C867.63880762 2040.09099482 863.23960829 2038.82759479 858.83959961 2037.56665039 C854.04333925 2036.19158187 849.24728751 2034.81581804 844.45249939 2033.43562317 C826.4361317 2028.25088783 808.3933004 2023.16046237 790.34997559 2018.07049561 C781.52118921 2015.57974022 772.69363373 2013.08462761 763.86590958 2010.59011078 C758.87827779 2009.1807899 753.89054772 2007.77181689 748.90283203 2006.36279297 C737.23580557 2003.06677788 725.56903376 1999.76986203 713.90234375 1996.47265625 C712.48358539 1996.07169141 712.48358539 1996.07169141 711.03616524 1995.66262627 C706.26571456 1994.31441255 701.49526787 1992.96618469 696.724823 1991.61795044 C688.10876259 1989.18286671 679.4926666 1986.74790888 670.87657356 1984.3129406 C666.08438094 1982.95863213 661.29219059 1981.60431566 656.5 1980.25 C654.58333334 1979.70833329 652.66666668 1979.16666663 650.75 1978.625 C508.4375 1938.40625 508.4375 1938.40625 363.25 1897.375 C362.30122766 1897.10686871 361.35245531 1896.83873741 360.37493229 1896.56248093 C358.45849128 1896.02087799 356.54205032 1895.4792749 354.6256094 1894.93767166 C349.8304905 1893.58252864 345.03537084 1892.22738829 340.24024963 1890.87225342 C331.65647259 1888.44641506 323.07270047 1886.02055928 314.48895741 1883.59460068 C309.75175666 1882.25576197 305.01455138 1880.91693932 300.27734375 1879.578125 C299.33721876 1879.31242958 298.39709377 1879.04673416 297.42848015 1878.77298737 C284.26262075 1875.05212362 271.09654776 1871.33201645 257.93032837 1867.61242676 C250.53277785 1865.52254056 243.13528403 1863.4324537 235.73780251 1861.3423233 C230.70358593 1859.91994126 225.66933738 1858.49767261 220.63500977 1857.07568359 C210.93051013 1854.33450431 201.22638008 1851.59203717 191.52353859 1848.84499359 C186.94911409 1847.55023818 182.3732462 1846.26073808 177.79638672 1844.97460938 C175.85251048 1844.4258825 173.90865962 1843.87706569 171.96484375 1843.328125 C171.1299794 1843.09510681 170.29511505 1842.86208862 169.43495178 1842.62200928 C164.11367017 1841.11367017 164.11367017 1841.11367017 163 1840 C162.64196162 1836.99780303 162.3454349 1834.00899776 162.08465385 1830.99775124 C161.99769011 1830.03493278 161.91072636 1829.07211433 161.82112736 1828.08011957 C161.52640979 1824.80456762 161.23822172 1821.52847236 160.94992065 1818.25234985 C160.73869128 1815.88955324 160.52706518 1813.52679206 160.31507504 1811.16406357 C159.85131132 1805.98482994 159.39039639 1800.80535061 158.93190384 1795.62564802 C158.24528694 1787.86897862 157.55347674 1780.11277852 156.86061634 1772.35666464 C155.67995013 1759.13818235 154.50357799 1745.919321 153.32949448 1732.70025253 C152.13951404 1719.30241104 150.94756401 1705.90474697 149.75317764 1692.50729752 C149.67789908 1691.66288442 149.60262052 1690.81847131 149.52506079 1689.94846994 C149.14121075 1685.64286312 148.7573277 1681.33725925 148.37343253 1677.03165646 C145.58791552 1645.78978013 142.8067466 1614.54751794 140.02783203 1583.30505371 C137.2551994 1552.13339776 134.48066042 1520.9619124 131.70361328 1489.79064941 C131.61699582 1488.81839429 131.53037836 1487.84613917 131.44113613 1486.84442177 C130.5614454 1476.97018259 129.68171462 1467.09594698 128.80195504 1457.22171393 C126.92474805 1436.15234446 125.04779606 1415.08295227 123.17095947 1394.0135498 C123.0368576 1392.50812747 123.0368576 1392.50812747 122.90004661 1390.97229257 C120.05195021 1358.99956375 117.20498106 1327.02673467 114.35882568 1295.05383301 C114.22063946 1293.50149214 114.22063946 1293.50149214 114.0796616 1291.91779086 C113.1479806 1281.451562 112.21631662 1270.98533163 111.28466019 1260.51910059 C105.02565704 1190.2054531 98.76410067 1119.89203408 92.49707031 1049.57910156 C92.3674364 1048.12467085 92.3674364 1048.12467085 92.23518362 1046.64085769 C89.81275328 1019.4624028 87.39007341 992.28397016 84.96730921 965.10554503 C84.02485495 954.53314441 83.08241656 943.96074239 82.13998222 933.38834 C82.05537075 932.43915284 81.97075927 931.48996569 81.88358381 930.51201529 C80.09919712 910.49442222 78.31483905 890.47682659 76.53051145 870.45922825 C76.19323148 866.6754307 75.8559498 862.8916333 75.51866667 859.10783604 C70.44936975 802.23807796 65.38200858 745.36814769 60.31644089 688.49805732 C59.9091481 683.92547507 59.50185057 679.35289323 59.09455359 674.78031135 C57.4864087 656.72620446 55.87828983 638.67209526 54.27018547 620.61798477 C54.19151076 619.73470805 54.11283605 618.85143132 54.03177726 617.94138864 C53.16408586 608.19985826 52.29640298 598.45832713 51.42873693 588.71679449 C49.28064524 564.59959071 47.13242754 540.48239815 44.98388672 516.36523438 C44.90964354 515.53186072 44.83540035 514.69848706 44.75890738 513.83985965 C39.22903853 451.76790168 33.68992329 389.69677179 28.14674483 327.62600115 C26.36350066 307.65770798 24.58113567 287.68933656 22.7996521 267.72088623 C22.68688709 266.4569316 22.57412207 265.19297698 22.45793994 263.8907207 C21.35144423 251.48816904 20.24506208 239.08560726 19.13884882 226.68303041 C16.87302481 201.27960373 14.6050025 175.87637651 12.33197875 150.47359297 C10.75394511 132.83731544 9.17916224 115.20075041 7.60805506 97.56385446 C6.7026916 87.4017099 5.7946525 77.23981319 4.88253873 67.07827224 C4.28492185 60.41758053 3.6907695 53.75658588 3.09952689 47.09532534 C2.76608548 43.3397316 2.43113233 39.58429034 2.0918293 35.82922125 C1.7288569 31.81189639 1.37340371 27.79394156 1.01869202 23.77587891 C0.91381991 22.62886041 0.8089478 21.48184191 0.70089775 20.30006528 C0.60737036 19.22664341 0.51384297 18.15322154 0.41748142 17.04727173 C0.33619702 16.13756937 0.25491262 15.22786701 0.17116505 14.29059792 C-0.07629997 9.53315537 0 4.76387431 0 0 Z " fill="#E34F26" transform="translate(120,0)"/>
<path d="M0 0 C373.56 0 747.12 0 1132 0 C1132 6.80260865 1131.95369734 13.46379069 1131.51953125 20.23046875 C1131.46665955 21.08271027 1131.41378784 21.93495178 1131.35931396 22.8130188 C1131.18279304 25.60491919 1130.99876632 28.39623352 1130.8125 31.1875 C1130.74819794 32.16141693 1130.68389587 33.13533386 1130.61764526 34.13876343 C1129.25007664 54.57207864 1127.16621818 74.909274 1124.94274902 95.26441956 C1123.74394917 106.2673218 1122.65743629 117.28100442 1121.57449341 128.29580688 C1120.77025366 136.46778992 1119.93821731 144.6338656 1119.01171875 152.79296875 C1117.85808304 162.99396686 1116.92883244 173.21399376 1116 183.4375 C1115.74959192 186.18832081 1115.49859957 188.93908343 1115.24609375 191.68971252 C1115.09120239 193.37737333 1114.93739968 195.06513476 1114.78515625 196.7530365 C1113.95133789 205.84692518 1112.95630862 214.9150681 1112 224 C826.88 224 541.76 224 248 224 C248.66 229.61 249.32 235.22 250 241 C250.45207108 245.59460079 250.8892541 250.18680643 251.296875 254.78515625 C251.41081604 256.05137314 251.52475708 257.31759003 251.64215088 258.62217712 C251.95039825 262.05213429 252.2552973 265.48238094 252.55926514 268.91271973 C252.75280732 271.09414143 252.94731906 273.27547478 253.14208984 275.45678711 C255.3134653 299.78755257 257.36618821 324.12746105 259.36785889 348.47271729 C260.75664682 365.36102964 262.18284069 382.24475364 263.7109375 399.12109375 C263.78126442 399.8988982 263.85159134 400.67670265 263.92404938 401.47807693 C264.60160633 408.96846252 265.28324479 416.4584432 265.97756004 423.94729519 C266.1679455 426.00633022 266.35660467 428.06551533 266.54458618 430.12477112 C266.77246347 432.61787051 267.00347909 435.11068605 267.2383728 437.60313416 C267.33937286 438.71435135 267.44037292 439.82556854 267.54443359 440.97045898 C267.63292572 441.92355453 267.72141785 442.87665009 267.81259155 443.85862732 C268.05363564 447.89904991 268 451.95239368 268 456 C539.92 456 811.84 456 1092 456 C1089.69024665 476.78778019 1089.69024665 476.78778019 1088.74609375 484.33203125 C1088.64031509 485.18254562 1088.53453644 486.03306 1088.42555237 486.90934753 C1088.2069241 488.66400701 1087.9876879 490.41859085 1087.76782227 492.1730957 C1087.43213685 494.85535368 1087.09979005 497.53801297 1086.76757812 500.22070312 C1086.55228231 501.94533735 1086.33679492 503.66994768 1086.12109375 505.39453125 C1085.9741935 506.5835479 1085.9741935 506.5835479 1085.82432556 507.79658508 C1085.46109365 510.67826143 1085.09690104 513.53771121 1084.5007782 516.38165283 C1083.9600458 519.20890282 1083.68210997 521.97854314 1083.44677734 524.84741211 C1083.30017166 526.60612892 1083.30017166 526.60612892 1083.15060425 528.40037537 C1083.04676422 529.67977493 1082.94292419 530.9591745 1082.8359375 532.27734375 C1082.72249084 533.64663748 1082.60872293 535.01590462 1082.49465942 536.38514709 C1082.24871614 539.34185706 1082.00427265 542.29868547 1081.76098633 545.25561523 C1081.09647222 553.32606032 1080.42004736 561.39551016 1079.7421875 569.46484375 C1079.67162392 570.30548748 1079.60106033 571.14613121 1079.52835846 572.01224899 C1077.99968052 590.20112495 1076.36904497 608.38035334 1074.72126007 626.55876541 C1072.39735001 652.1992237 1070.14321883 677.84379793 1068 703.5 C1065.85587251 729.16707962 1063.59812732 754.82224087 1061.27606201 780.47381592 C1059.10372392 804.47616723 1057.00626929 828.48320357 1055 852.5 C1052.85587251 878.16707962 1050.59812732 903.82224087 1048.27606201 929.47381592 C1046.16932221 952.75136609 1044.12877772 976.03297078 1042.18190765 999.32444 C1040.05485653 1024.76332195 1037.86526314 1050.19607187 1035.59765625 1075.62283325 C1035.38063303 1078.06169714 1035.16494151 1080.50067493 1034.94970703 1082.93969727 C1032.9134825 1105.99235185 1030.56584151 1129.00030301 1028 1152 C1025.94945016 1152.63197735 1023.89881489 1153.26367749 1021.84814453 1153.89526367 C1020.70620636 1154.24707199 1019.56426819 1154.59888031 1018.38772583 1154.96134949 C1003.57283793 1159.50347942 988.67843095 1163.66586618 973.66772461 1167.51049805 C965.10553549 1169.70385055 956.58421015 1172.01377808 948.07861328 1174.41601562 C945.96970162 1175.0085123 943.85840648 1175.59162756 941.74609375 1176.171875 C934.32997531 1178.21159968 926.9351273 1180.30692149 919.55957031 1182.48925781 C908.64664372 1185.71442054 897.69012836 1188.68752395 886.66650391 1191.51074219 C878.10475938 1193.70415481 869.58381154 1196.01389066 861.07861328 1198.41601562 C858.96970162 1199.0085123 856.85840648 1199.59162756 854.74609375 1200.171875 C847.32997531 1202.21159968 839.9351273 1204.30692149 832.55957031 1206.48925781 C821.64664372 1209.71442054 810.69012836 1212.68752395 799.66650391 1215.51074219 C791.10475938 1217.70415481 782.58381154 1220.01389066 774.07861328 1222.41601562 C771.96970162 1223.0085123 769.85840648 1223.59162756 767.74609375 1224.171875 C760.32997531 1226.21159968 752.9351273 1228.30692149 745.55957031 1230.48925781 C734.64664372 1233.71442054 723.69012836 1236.68752395 712.66650391 1239.51074219 C704.10475938 1241.70415481 695.58381154 1244.01389066 687.07861328 1246.41601562 C684.96970162 1247.0085123 682.85840648 1247.59162756 680.74609375 1248.171875 C673.32997531 1250.21159968 665.9351273 1252.30692149 658.55957031 1254.48925781 C647.64664372 1257.71442054 636.69012836 1260.68752395 625.66650391 1263.51074219 C617.12414716 1265.6991879 608.62186771 1268.002355 600.13574219 1270.3984375 C596.28085376 1271.48422226 592.42138705 1272.55353282 588.5625 1273.625 C587.43908203 1273.93800049 587.43908203 1273.93800049 586.29296875 1274.25732422 C581.16266252 1275.68507656 576.02282887 1277.07317113 570.87109375 1278.421875 C569.00559854 1278.83878461 569.00559854 1278.83878461 568 1280 C556.90844861 1279.64788726 546.42270718 1275.91583916 535.8671875 1272.76953125 C534.5156856 1272.36698398 533.16412282 1271.96464108 531.8125 1271.5625 C530.78938721 1271.25747559 530.78938721 1271.25747559 529.74560547 1270.94628906 C522.73672358 1268.87967017 515.66687091 1267.06008495 508.5925293 1265.23291016 C497.63286533 1262.39903209 486.71942497 1259.41888761 475.87280273 1256.17797852 C467.49176376 1253.67429333 459.06145988 1251.42028212 450.5925293 1249.23291016 C439.63286533 1246.39903209 428.71942497 1243.41888761 417.87280273 1240.17797852 C409.49176376 1237.67429333 401.06145988 1235.42028212 392.5925293 1233.23291016 C381.63286533 1230.39903209 370.71942497 1227.41888761 359.87280273 1224.17797852 C351.49176376 1221.67429333 343.06145988 1219.42028212 334.5925293 1217.23291016 C323.63286533 1214.39903209 312.71942497 1211.41888761 301.87280273 1208.17797852 C293.49176376 1205.67429333 285.06145988 1203.42028212 276.5925293 1201.23291016 C265.63286533 1198.39903209 254.71942497 1195.41888761 243.87280273 1192.17797852 C235.49176376 1189.67429333 227.06145988 1187.42028212 218.5925293 1185.23291016 C207.63286533 1182.39903209 196.71942497 1179.41888761 185.87280273 1176.17797852 C177.49176376 1173.67429333 169.06145988 1171.42028212 160.5925293 1169.23291016 C148.08548031 1165.99891941 135.66385027 1162.51452809 123.28759766 1158.81323242 C117.53848087 1157.11337012 111.74514675 1155.63659366 105.91162109 1154.25561523 C101.10124874 1153.10124874 101.10124874 1153.10124874 100 1152 C99.74194911 1150.14698047 99.54877798 1148.28491519 99.38012695 1146.42163086 C99.26775192 1145.19263565 99.15537689 1143.96364044 99.03959656 1142.69740295 C98.91797744 1141.30741357 98.79671978 1139.91739252 98.67578125 1138.52734375 C98.61200098 1137.8100453 98.54822071 1137.09274685 98.48250771 1136.35371208 C96.70406686 1116.35239581 95.21474655 1096.32694798 93.69848633 1076.30444336 C92.81992229 1064.70376023 91.93178047 1053.10380806 91.04296875 1041.50390625 C90.95452572 1040.3489629 90.86608269 1039.19401955 90.77495956 1038.00407791 C89.24189722 1017.9977714 87.64367183 997.99748226 86 978 C83.14074211 943.19335127 80.4656533 908.37294047 77.80273438 873.55078125 C77.55882078 870.36192287 77.3149042 867.17306472 77.07098007 863.98420715 C76.91251836 861.9119381 76.75414391 859.83966237 76.59585953 857.76737976 C75.77542905 847.0281094 74.94813232 836.28947871 74.09521484 825.55273438 C74.02388556 824.65428425 73.95255629 823.75583412 73.87906551 822.83015823 C73.54552366 818.63366114 73.21029804 814.43730755 72.87251282 810.2411499 C72.75573144 808.77958299 72.63896514 807.31801487 72.5222168 805.85644531 C72.4207988 804.59680969 72.3193808 803.33717407 72.21488953 802.03936768 C72.0728222 800.02998714 72 798.0143965 72 796 C145.92 796 219.84 796 296 796 C297.11057769 799.33173307 297.36609863 802.24170534 297.66088867 805.74462891 C297.71979373 806.43201141 297.77869879 807.11939392 297.83938885 807.8276062 C298.03563769 810.12698421 298.22672276 812.42676342 298.41796875 814.7265625 C298.55676304 816.36139061 298.69594176 817.99618612 298.83547974 819.63095093 C299.13379769 823.13222805 299.43008633 826.63366836 299.72476196 830.13525391 C300.50267078 839.37480302 301.29411647 848.61319695 302.0859375 857.8515625 C302.16585497 858.78516853 302.24577244 859.71877457 302.32811165 860.68067169 C304.13130684 881.72857358 306.06681214 902.76338359 308.0456543 923.79541016 C308.27678593 926.25941611 308.50766871 928.72344541 308.73828125 931.1875 C308.90190407 932.93358047 308.90190407 932.93358047 309.0688324 934.7149353 C309.91287179 943.82370967 310.65898879 952.93872225 311.33796692 962.0612793 C311.69604791 966.75821976 312.1086828 971.36652256 313 976 C313.61705811 976.15033691 314.23411621 976.30067383 314.86987305 976.45556641 C325.65062561 979.09172492 336.40936261 981.75810129 347.0625 984.875 C355.82791269 987.43794622 364.6518697 989.74304361 373.5 992 C383.13910804 994.46041778 392.74064926 997.00828249 402.29443359 999.78344727 C418.04906804 1004.35096734 433.9270414 1008.47786101 449.8125 1012.5625 C458.4938723 1014.79474728 467.12319167 1017.14998601 475.7277832 1019.66040039 C483.60987602 1021.93671704 491.55142285 1023.97157547 499.5 1026 C508.30256795 1028.24716628 517.08612998 1030.53252118 525.8125 1033.0625 C527.02365479 1033.40958008 527.02365479 1033.40958008 528.25927734 1033.76367188 C531.92253699 1034.81466042 535.58204994 1035.87482329 539.23291016 1036.96826172 C542.69094098 1038.00061953 546.15700687 1039.00168662 549.625 1040 C551.22565308 1040.49125366 551.22565308 1040.49125366 552.85864258 1040.99243164 C560.29222406 1043.09660493 565.58153711 1042.97470766 573 1041 C574.11503906 1040.7313916 575.23007813 1040.4627832 576.37890625 1040.18603516 C580.15842582 1039.26503126 583.92392838 1038.29602447 587.6875 1037.3125 C588.36330109 1037.13736877 589.03910217 1036.96223755 589.73538208 1036.78179932 C599.66274162 1034.20783977 609.51758981 1031.43958704 619.34570312 1028.50732422 C627.25264412 1026.16705145 635.21896211 1024.15190737 643.22802734 1022.19433594 C649.55034673 1020.63975162 655.81407881 1018.95304442 662.0625 1017.125 C670.82791543 1014.56206782 679.65186999 1012.25695631 688.5 1010 C698.13910804 1007.53958222 707.74064926 1004.99171751 717.29443359 1002.21655273 C734.17651971 997.32216642 751.19956245 992.9342941 768.22265625 988.56152344 C776.07842405 986.53120117 783.87703079 984.34282154 791.66601562 982.0715332 C799.71290279 979.74671838 807.83010442 977.8406006 816 976 C816.07222275 975.01495483 816.07222275 975.01495483 816.14590454 974.01000977 C817.35369458 957.65108787 818.77150163 941.32450421 820.375 925 C820.59664772 922.7226848 820.817996 920.44534044 821.0390625 918.16796875 C821.48318141 913.59366497 821.92828014 909.01945825 822.37402344 904.4453125 C823.18264087 896.13443673 823.97363756 887.82191239 824.76199341 879.50909424 C826.30778484 863.21317428 827.86990887 846.91883583 829.4375 830.625 C829.54206512 829.53809875 829.64663025 828.45119751 829.75436401 827.33135986 C830.6101939 818.43628718 831.46652688 809.54126294 832.32287598 800.64624023 C834.85453925 774.34874361 837.38337668 748.05100539 839.88285828 721.75042725 C840.02976639 720.20600398 840.17698679 718.66161038 840.32453918 717.11724854 C840.73143351 712.85342741 841.13054046 708.58900094 841.52197266 704.32373047 C841.65421989 702.8978788 841.65421989 702.8978788 841.78913879 701.44322205 C841.95931993 699.60761404 842.12746974 697.77181619 842.29325867 695.93580627 C842.37090958 695.10290573 842.44856049 694.27000519 842.52856445 693.41186523 C842.5955806 692.67959213 842.66259674 691.94731903 842.73164368 691.19285583 C843.02737892 688.77627494 843.52253383 686.38733085 844 684 C585.28 684 326.56 684 60 684 C56.55497348 651.84641912 56.55497348 651.84641912 55.60546875 640.96484375 C55.43278894 639.02462704 55.26010912 637.08441033 55.08742905 635.14419365 C54.90840136 633.12716831 54.73061501 631.11003745 54.55325317 629.09286499 C54.17346003 624.77367166 53.78994584 620.45481275 53.40600586 616.13598633 C52.93488416 610.83404288 52.464539 605.5320318 51.9952898 600.22992229 C51.17666924 590.98092709 50.35213349 581.73247264 49.5234375 572.484375 C49.46334126 571.81370247 49.40324501 571.14302994 49.34132767 570.452034 C49.03745114 567.06123425 48.7334492 563.67044577 48.42938232 560.27966309 C48.05888166 556.14773394 47.68882106 552.01576545 47.31884766 547.88378906 C44.66306847 518.22451 42.00056325 488.56583441 39.33815002 458.90715027 C38.3073083 447.42379129 37.27663178 435.94041749 36.24609375 424.45703125 C36.17402269 423.65393713 36.10195164 422.85084301 36.02769661 422.0234127 C35.66395962 417.97024939 35.3002256 413.91708582 34.93649292 409.86392212 C34.2806165 402.55534402 33.62471364 395.24676829 32.96881294 387.93819237 C32.60420756 383.87546167 32.23960387 379.81273083 31.875 375.75 C31.72916667 374.125 31.58333334 372.5 31.4375 370.875 C28.8125 341.625 26.1875 312.375 23.5625 283.125 C23.49031219 282.32062217 23.41812437 281.51624434 23.34374905 280.68749142 C23.19791841 279.06252007 23.05208825 277.43754868 22.90625858 275.81257725 C22.54163801 271.74963849 22.17700901 267.68670049 21.81236267 263.62376404 C21.15654831 256.31650414 20.50079231 249.00923903 19.84535503 241.7019453 C19.48158083 237.64634518 19.1177567 233.59074954 18.75390625 229.53515625 C18.64580722 228.33023372 18.64580722 228.33023372 18.53552437 227.10096931 C17.50557355 215.62177346 16.47278703 204.14283536 15.43834496 192.66404343 C14.77077491 185.25525158 14.10392532 177.8463949 13.4375 170.4375 C13.36519291 169.63366882 13.29288582 168.82983765 13.2183876 168.00164795 C10.74556762 140.50475763 8.32831883 113.00327312 5.95288086 85.49780273 C5.72253063 82.83186528 5.49212394 80.16593271 5.26171875 77.5 C5.15257645 76.23562103 5.04343414 74.97124207 4.9309845 73.66854858 C4.277672 66.12447287 3.59899892 58.58315146 2.90234375 51.04296875 C2.11384137 42.47188985 1.43926604 33.90136913 0.875 25.3125 C0.78863281 24.07306641 0.70226562 22.83363281 0.61328125 21.55664062 C0.53207031 20.33783203 0.45085937 19.11902344 0.3671875 17.86328125 C0.29612793 16.80407471 0.22506836 15.74486816 0.15185547 14.65356445 C-0.05099882 9.77299456 0 4.88478376 0 0 Z " fill="#FEFEFE" transform="translate(456,376)"/>
<path d="M0 0 C242.88 0 485.76 0 736 0 C734.85011339 17.24829913 733.65686529 34.29261301 731.7890625 51.4453125 C730.91490445 59.66413348 730.16160781 67.89183894 729.4375 76.125 C729.37377197 76.84802307 729.31004395 77.57104614 729.24438477 78.315979 C728.43162637 87.58013047 727.70892814 96.84765154 727.0625 106.125 C726.2436978 117.80546408 725.06850431 129.43654166 723.86453247 141.08184814 C722.16357857 157.61324697 720.80876801 174.16445781 719.57080078 190.73657227 C718.62415967 203.21624465 717.45299336 215.66324331 716.18359375 228.11328125 C713.69443883 252.55269231 711.54016234 277.02079259 709.38783646 301.49180603 C709.05825003 305.23577803 708.72762634 308.97965712 708.396698 312.72351074 C705.66449719 343.64011372 702.95293178 374.55782285 700.53344727 405.50073242 C699.45848372 419.1444454 698.12954801 432.74898358 696.69360352 446.359375 C695.86028614 454.27487901 695.12360739 462.19542286 694.4375 470.125 C694.31112158 471.56494185 694.18473797 473.00488324 694.05834961 474.44482422 C693.31335154 482.99969764 692.6593979 491.55849512 692.0625 500.125 C691.2436978 511.80546408 690.06850431 523.43654166 688.86453247 535.08184814 C687.16357857 551.61324697 685.80876801 568.16445781 684.57080078 584.73657227 C683.62415967 597.21624465 682.45299336 609.66324331 681.18359375 622.11328125 C678.69443883 646.55269231 676.54016234 671.02079259 674.38783646 695.49180603 C674.05825003 699.23577803 673.72762634 702.97965712 673.396698 706.72351074 C670.66449719 737.64011372 667.95293178 768.55782285 665.53344727 799.50073242 C664.45592938 813.17664481 663.12431419 826.813544 661.68481445 840.45605469 C660.90229974 847.8814768 660.20376222 855.3109549 659.5625 862.75 C659.44210749 864.12532992 659.32166231 865.50065522 659.20117188 866.87597656 C658.44347268 875.58131712 657.72916415 884.28999249 657.02734375 893 C656.9435144 894.04006699 656.85968506 895.08013397 656.77331543 896.15171814 C656.2569001 902.56047161 656.2569001 902.56047161 655.74102783 908.9692688 C654.65888295 922.38886326 653.47515901 935.78503064 652.07202148 949.17529297 C651.06913972 958.89761804 650.30247008 968.63005565 649.5625 978.375 C648.60277525 990.97824031 647.48749227 1003.55241831 646.1875 1016.125 C644.26412983 1034.77635731 642.58178723 1053.44738487 640.9375 1072.125 C640.87213421 1072.86712234 640.80676842 1073.60924469 640.73942184 1074.37385559 C639.04902806 1093.57935191 637.38554213 1112.78664929 635.93725586 1132.01220703 C635.29547331 1140.48796244 634.56272327 1148.95111674 633.78361511 1157.41523743 C633.1778587 1164.00543056 632.59758623 1170.59737977 632.03515625 1177.19140625 C631.95508331 1178.12617798 631.87501038 1179.06094971 631.79251099 1180.02404785 C631.46866716 1183.80505121 631.14502396 1187.58606557 630.82543945 1191.36743164 C629.86470581 1202.71751715 628.79698048 1214.04837899 627.58984375 1225.375 C626.33691864 1237.21665258 625.27257938 1249.06762976 624.28125 1260.93359375 C624.17208409 1262.24018291 624.17208409 1262.24018291 624.06071281 1263.5731678 C623.53651209 1269.86095238 623.01786242 1276.14919076 622.5 1282.4375 C621.90946297 1289.60313331 621.31652254 1296.76856016 620.71875 1303.93359375 C620.6103564 1305.23444538 620.6103564 1305.23444538 620.49977303 1306.56157684 C619.45165191 1319.09959389 618.27758381 1331.61864615 616.99278259 1344.13453674 C616.10427101 1352.81729351 615.35364607 1361.50037047 614.72128296 1370.20513916 C613.74589542 1383.53437325 612.56203999 1396.83144683 611.1875 1410.125 C609.26412983 1428.77635731 607.58178723 1447.44738487 605.9375 1466.125 C605.87213421 1466.86712234 605.80676842 1467.60924469 605.73942184 1468.37385559 C603.9164909 1489.08517974 602.17989586 1509.80124576 600.58203125 1530.53125 C599.40789635 1545.73543216 598.0355008 1560.88532386 596 1576 C582.37041698 1580.3510931 568.65508589 1584.21086439 554.8125 1587.8125 C542.82850432 1590.93335519 530.86318003 1594.10030704 518.9375 1597.4375 C516.00789842 1598.25681808 513.07822648 1599.07588352 510.1484375 1599.89453125 C509.33947021 1600.12059555 508.53050293 1600.34665985 507.69702148 1600.57957458 C493.92418558 1604.42252433 480.1339512 1608.20305358 466.34737015 1611.99632645 C460.49732545 1613.60594456 454.64738843 1615.21595403 448.79743004 1616.82588577 C447.37039206 1617.21860594 445.94335068 1617.61131373 444.51630592 1618.00400925 C431.24118504 1621.65710835 417.96820549 1625.31794447 404.69564819 1628.98034668 C393.23372733 1632.14276503 381.77115747 1635.30282796 370.30807495 1638.46103287 C368.83771133 1638.86613824 367.36735419 1639.27126719 365.89700317 1639.6764183 C349.27748903 1644.25579003 332.6562764 1648.82860538 316.0234375 1653.359375 C314.77829376 1653.69855453 313.53315002 1654.03773407 312.25027466 1654.38719177 C306.46715652 1655.96183872 300.68344528 1657.5342689 294.89892578 1659.10375977 C285.53970841 1661.64628288 276.19059623 1664.21367248 266.87109375 1666.8984375 C254.53136806 1670.45086013 242.13844537 1673.80819491 229.74716187 1677.1751709 C223.24149194 1678.9429349 216.73710918 1680.71542708 210.23257637 1682.48736954 C207.98604473 1683.09932955 205.73947666 1683.7111557 203.49290466 1684.32296753 C189.05073687 1688.25645019 174.61198169 1692.20234843 160.17575073 1696.15756226 C157.55540592 1696.87544987 154.93490246 1697.59275343 152.3142395 1698.30947876 C140.76973213 1701.46754415 129.22737707 1704.62725268 117.7265625 1707.94140625 C104.3065502 1711.80587276 90.8223514 1715.43877934 77.34605026 1719.10077667 C71.49477768 1720.69123216 65.64431192 1722.28465535 59.79377937 1723.87783051 C58.34002042 1724.27369734 56.88624824 1724.66951559 55.43246269 1725.06528473 C46.22753979 1727.57131967 37.02529876 1730.08673081 27.828125 1732.62109375 C26.86985306 1732.88514511 25.91158112 1733.14919647 24.92427063 1733.42124939 C20.60214916 1734.61288796 16.28063619 1735.80669604 11.9597168 1737.00268555 C10.48226123 1737.41065218 9.00480369 1737.8186117 7.52734375 1738.2265625 C5.65163696 1738.74597412 5.65163696 1738.74597412 3.73803711 1739.27587891 C1 1740 1 1740 0 1740 C0 1663.11 0 1586.22 0 1507 C4.98623165 1505.13016313 9.48369785 1503.50067317 14.5625 1502.1875 C15.18108887 1502.02572266 15.79967773 1501.86394531 16.43701172 1501.69726562 C18.62342521 1501.12657643 20.81152956 1500.56274954 23 1500 C39.35581243 1495.82699922 39.35581243 1495.82699922 55.54296875 1491.0546875 C67.93388471 1487.27440805 80.52178067 1484.11376903 93.0625 1480.875 C99.94840723 1479.09517045 106.76224973 1477.20532184 113.54296875 1475.0546875 C125.93388471 1471.27440805 138.52178067 1468.11376903 151.0625 1464.875 C157.94840723 1463.09517045 164.76224973 1461.20532184 171.54296875 1459.0546875 C183.93388471 1455.27440805 196.52178067 1452.11376903 209.0625 1448.875 C215.94840723 1447.09517045 222.76224973 1445.20532184 229.54296875 1443.0546875 C241.93388471 1439.27440805 254.52178067 1436.11376903 267.0625 1432.875 C273.94840723 1431.09517045 280.76224973 1429.20532184 287.54296875 1427.0546875 C299.93388471 1423.27440805 312.52178067 1420.11376903 325.0625 1416.875 C331.94840723 1415.09517045 338.76224973 1413.20532184 345.54296875 1411.0546875 C357.93388471 1407.27440805 370.52178067 1404.11376903 383.0625 1400.875 C389.94840723 1399.09517045 396.76224973 1397.20532184 403.54296875 1395.0546875 C422.15331066 1389.37695607 441.12425904 1384.70705505 460 1380 C460.04825928 1379.01862061 460.09651855 1378.03724121 460.14624023 1377.02612305 C460.70834317 1366.273606 461.67101963 1355.58904267 462.75408936 1344.87799072 C465.40947552 1318.48440869 467.64828737 1292.05743588 469.875 1265.625 C470.56667648 1257.41788147 471.25902292 1249.21082003 471.953125 1241.00390625 C472.08208003 1239.47907686 472.08208003 1239.47907686 472.21364021 1237.92344284 C473.94588222 1217.46324263 475.77069391 1197.01194728 477.625 1176.5625 C479.89795199 1151.48616651 482.08646994 1126.40463281 484.18271637 1101.3129158 C486.26657845 1076.37497059 488.4678328 1051.44910565 490.72393799 1026.52618408 C492.89627608 1002.52383277 494.99373071 978.51679643 497 954.5 C499.07519855 929.65806006 501.25262571 904.82695023 503.5 880 C506.24172147 849.71124029 508.86293464 819.41389945 511.39744568 789.1071167 C511.72863119 785.14780259 512.06173952 781.18865109 512.39477539 777.22949219 C512.77912033 772.65780632 513.15583709 768.08561844 513.52514648 763.51269531 C514.39790871 752.85871224 515.50681279 742.29900578 517.11682129 731.73071289 C517.6798559 728.03358803 518.22064674 724.33320545 518.76171875 720.6328125 C518.86900299 719.90149109 518.97628723 719.17016968 519.08682251 718.41668701 C520.24869536 710.42127473 521.20215558 702.40265245 522.09936523 694.37353516 C522.20579346 693.43558105 522.31222168 692.49762695 522.421875 691.53125 C522.51049805 690.72236328 522.59912109 689.91347656 522.69042969 689.08007812 C523 687 523 687 524 684 C252.08 684 -19.84 684 -300 684 C-302.31123121 660.30988009 -304.61908428 636.64844347 -306.53613281 612.92749023 C-306.67428269 611.22915044 -306.8125098 609.53081693 -306.95080566 607.83248901 C-307.02015823 606.98004986 -307.0895108 606.1276107 -307.16096497 605.24934006 C-307.83182855 597.0237045 -308.51359449 588.79896059 -309.1953125 580.57421875 C-309.27086868 579.66193323 -309.34642487 578.74964771 -309.42427063 577.80971718 C-310.95519104 559.3452482 -312.58213459 540.89004711 -314.25 522.4375 C-314.37590403 521.04321369 -314.50179928 519.64892659 -314.62768555 518.25463867 C-315.10198644 513.00288798 -315.57677519 507.75118162 -316.05230713 502.49954224 C-316.94631945 492.61978711 -317.82801681 482.73904354 -318.68200684 472.85574341 C-318.80792202 471.4003319 -318.93459564 469.94498576 -319.06213379 468.48971558 C-319.22847776 466.5896857 -319.39169119 464.68938249 -319.5546875 462.7890625 C-319.68593018 461.26853271 -319.68593018 461.26853271 -319.81982422 459.71728516 C-319.99006758 457.14979377 -320 454.57312939 -320 452 C-34.88 452 250.24 452 544 452 C544.33 445.73 544.66 439.46 545 433 C545.34581965 428.56445319 545.70868022 424.13965961 546.12109375 419.7109375 C546.22591568 418.55735748 546.33073761 417.40377747 546.43873596 416.21524048 C546.65802586 413.81065263 546.87905051 411.40622235 547.10180664 409.00195312 C547.43758396 405.3740929 547.76706185 401.74570042 548.09570312 398.1171875 C549.10192732 387.0936412 550.17726564 376.09161772 551.51977539 365.10400391 C552.50101638 356.91994598 553.2212998 348.70524922 554 340.5 C554.92827899 330.71862273 555.85680141 320.94241893 557.03515625 311.1875 C560.36879469 283.56621112 561.97113785 255.72778268 564 228 C377.88 228 191.76 228 0 228 C0 152.76 0 77.52 0 0 Z " fill="#EF652A" transform="translate(1024,148)"/>
<path d="M0 0 C373.56 0 747.12 0 1132 0 C1132 6.80260865 1131.95369734 13.46379069 1131.51953125 20.23046875 C1131.46665955 21.08271027 1131.41378784 21.93495178 1131.35931396 22.8130188 C1131.18279304 25.60491919 1130.99876632 28.39623352 1130.8125 31.1875 C1130.74819794 32.16141693 1130.68389587 33.13533386 1130.61764526 34.13876343 C1129.25007664 54.57207864 1127.16621818 74.909274 1124.94274902 95.26441956 C1123.74394917 106.2673218 1122.65743629 117.28100442 1121.57449341 128.29580688 C1120.77025366 136.46778992 1119.93821731 144.6338656 1119.01171875 152.79296875 C1117.85808304 162.99396686 1116.92883244 173.21399376 1116 183.4375 C1115.74959192 186.18832081 1115.49859957 188.93908343 1115.24609375 191.68971252 C1115.09120239 193.37737333 1114.93739968 195.06513476 1114.78515625 196.7530365 C1113.95133789 205.84692518 1112.95630862 214.9150681 1112 224 C826.88 224 541.76 224 248 224 C248.66 229.61 249.32 235.22 250 241 C250.45207108 245.59460079 250.8892541 250.18680643 251.296875 254.78515625 C251.41081604 256.05137314 251.52475708 257.31759003 251.64215088 258.62217712 C251.95039825 262.05213429 252.2552973 265.48238094 252.55926514 268.91271973 C252.75280732 271.09414143 252.94731906 273.27547478 253.14208984 275.45678711 C255.3134653 299.78755257 257.36618821 324.12746105 259.36785889 348.47271729 C260.75664682 365.36102964 262.18284069 382.24475364 263.7109375 399.12109375 C263.78126442 399.8988982 263.85159134 400.67670265 263.92404938 401.47807693 C264.60160633 408.96846252 265.28324479 416.4584432 265.97756004 423.94729519 C266.1679455 426.00633022 266.35660467 428.06551533 266.54458618 430.12477112 C266.77246347 432.61787051 267.00347909 435.11068605 267.2383728 437.60313416 C267.33937286 438.71435135 267.44037292 439.82556854 267.54443359 440.97045898 C267.63292572 441.92355453 267.72141785 442.87665009 267.81259155 443.85862732 C268.05363564 447.89904991 268 451.95239368 268 456 C365.68 456 463.36 456 564 456 C564 531.24 564 606.48 564 684 C397.68 684 231.36 684 60 684 C56.55497348 651.84641912 56.55497348 651.84641912 55.60546875 640.96484375 C55.43278894 639.02462704 55.26010912 637.08441033 55.08742905 635.14419365 C54.90840136 633.12716831 54.73061501 631.11003745 54.55325317 629.09286499 C54.17346003 624.77367166 53.78994584 620.45481275 53.40600586 616.13598633 C52.93488416 610.83404288 52.464539 605.5320318 51.9952898 600.22992229 C51.17666924 590.98092709 50.35213349 581.73247264 49.5234375 572.484375 C49.46334126 571.81370247 49.40324501 571.14302994 49.34132767 570.452034 C49.03745114 567.06123425 48.7334492 563.67044577 48.42938232 560.27966309 C48.05888166 556.14773394 47.68882106 552.01576545 47.31884766 547.88378906 C44.66306847 518.22451 42.00056325 488.56583441 39.33815002 458.90715027 C38.3073083 447.42379129 37.27663178 435.94041749 36.24609375 424.45703125 C36.17402269 423.65393713 36.10195164 422.85084301 36.02769661 422.0234127 C35.66395962 417.97024939 35.3002256 413.91708582 34.93649292 409.86392212 C34.2806165 402.55534402 33.62471364 395.24676829 32.96881294 387.93819237 C32.60420756 383.87546167 32.23960387 379.81273083 31.875 375.75 C31.72916667 374.125 31.58333334 372.5 31.4375 370.875 C28.8125 341.625 26.1875 312.375 23.5625 283.125 C23.49031219 282.32062217 23.41812437 281.51624434 23.34374905 280.68749142 C23.19791841 279.06252007 23.05208825 277.43754868 22.90625858 275.81257725 C22.54163801 271.74963849 22.17700901 267.68670049 21.81236267 263.62376404 C21.15654831 256.31650414 20.50079231 249.00923903 19.84535503 241.7019453 C19.48158083 237.64634518 19.1177567 233.59074954 18.75390625 229.53515625 C18.64580722 228.33023372 18.64580722 228.33023372 18.53552437 227.10096931 C17.50557355 215.62177346 16.47278703 204.14283536 15.43834496 192.66404343 C14.77077491 185.25525158 14.10392532 177.8463949 13.4375 170.4375 C13.36519291 169.63366882 13.29288582 168.82983765 13.2183876 168.00164795 C10.74556762 140.50475763 8.32831883 113.00327312 5.95288086 85.49780273 C5.72253063 82.83186528 5.49212394 80.16593271 5.26171875 77.5 C5.15257645 76.23562103 5.04343414 74.97124207 4.9309845 73.66854858 C4.277672 66.12447287 3.59899892 58.58315146 2.90234375 51.04296875 C2.11384137 42.47188985 1.43926604 33.90136913 0.875 25.3125 C0.78863281 24.07306641 0.70226562 22.83363281 0.61328125 21.55664062 C0.53207031 20.33783203 0.45085937 19.11902344 0.3671875 17.86328125 C0.29612793 16.80407471 0.22506836 15.74486816 0.15185547 14.65356445 C-0.05099882 9.77299456 0 4.88478376 0 0 Z " fill="#EAEAEA" transform="translate(456,376)"/>
<path d="M0 0 C73.92 0 147.84 0 224 0 C225.11057769 3.33173307 225.36609863 6.24170534 225.66088867 9.74462891 C225.71979373 10.43201141 225.77869879 11.11939392 225.83938885 11.8276062 C226.03563769 14.12698421 226.22672276 16.42676342 226.41796875 18.7265625 C226.55676304 20.36139061 226.69594176 21.99618612 226.83547974 23.63095093 C227.13379769 27.13222805 227.43008633 30.63366836 227.72476196 34.13525391 C228.50267078 43.37480302 229.29411647 52.61319695 230.0859375 61.8515625 C230.16585497 62.78516853 230.24577244 63.71877457 230.32811165 64.68067169 C232.13130684 85.72857358 234.06681214 106.76338359 236.0456543 127.79541016 C236.27678593 130.25941611 236.50766871 132.72344541 236.73828125 135.1875 C236.84736313 136.35155365 236.95644501 137.5156073 237.0688324 138.7149353 C237.91287179 147.82370967 238.65898879 156.93872225 239.33796692 166.0612793 C239.69604791 170.75821976 240.1086828 175.36652256 241 180 C241.92558716 180.22550537 241.92558716 180.22550537 242.86987305 180.45556641 C253.65062561 183.09172492 264.40936261 185.75810129 275.0625 188.875 C283.82791269 191.43794622 292.6518697 193.74304361 301.5 196 C311.13910804 198.46041778 320.74064926 201.00828249 330.29443359 203.78344727 C346.04906804 208.35096734 361.9270414 212.47786101 377.8125 216.5625 C386.4938723 218.79474728 395.12319167 221.14998601 403.7277832 223.66040039 C411.60987602 225.93671704 419.55142285 227.97157547 427.5 230 C437.12062683 232.4560047 446.70672622 234.99031026 456.23950195 237.77026367 C464.67379371 240.2228239 473.15860933 242.48160467 481.6496582 244.72875977 C482.70757568 245.01033936 483.76549316 245.29191895 484.85546875 245.58203125 C485.80059326 245.83186768 486.74571777 246.0817041 487.71948242 246.33911133 C490 247 490 247 492 248 C492 325.88 492 403.76 492 484 C472.76199909 479.47341155 472.76199909 479.47341155 463.375 476.625 C455.3258408 474.22949377 447.25806997 471.96829015 439.125 469.875 C427.31774824 466.83534143 415.55543221 463.66868182 403.87280273 460.17797852 C395.49176376 457.67429333 387.06145988 455.42028212 378.5925293 453.23291016 C367.63286533 450.39903209 356.71942497 447.41888761 345.87280273 444.17797852 C337.49176376 441.67429333 329.06145988 439.42028212 320.5925293 437.23291016 C309.63286533 434.39903209 298.71942497 431.41888761 287.87280273 428.17797852 C279.49176376 425.67429333 271.06145988 423.42028212 262.5925293 421.23291016 C251.63286533 418.39903209 240.71942497 415.41888761 229.87280273 412.17797852 C221.49176376 409.67429333 213.06145988 407.42028212 204.5925293 405.23291016 C193.63286533 402.39903209 182.71942497 399.41888761 171.87280273 396.17797852 C163.49176376 393.67429333 155.06145988 391.42028212 146.5925293 389.23291016 C135.63286533 386.39903209 124.71942497 383.41888761 113.87280273 380.17797852 C105.49176376 377.67429333 97.06145988 375.42028212 88.5925293 373.23291016 C76.08548031 369.99891941 63.66385027 366.51452809 51.28759766 362.81323242 C45.53848087 361.11337012 39.74514675 359.63659366 33.91162109 358.25561523 C29.10124874 357.10124874 29.10124874 357.10124874 28 356 C27.74194911 354.14698047 27.54877798 352.28491519 27.38012695 350.42163086 C27.26775192 349.19263565 27.15537689 347.96364044 27.03959656 346.69740295 C26.91797744 345.30741357 26.79671978 343.91739252 26.67578125 342.52734375 C26.61200098 341.8100453 26.54822071 341.09274685 26.48250771 340.35371208 C24.70406686 320.35239581 23.21474655 300.32694798 21.69848633 280.30444336 C20.81992229 268.70376023 19.93178047 257.10380806 19.04296875 245.50390625 C18.95452572 244.3489629 18.86608269 243.19401955 18.77495956 242.00407791 C17.24189722 221.9977714 15.64367183 201.99748226 14 182 C11.14074211 147.19335127 8.4656533 112.37294047 5.80273438 77.55078125 C5.55882078 74.36192287 5.3149042 71.17306472 5.07098007 67.98420715 C4.91251836 65.9119381 4.75414391 63.83966237 4.59585953 61.76737976 C3.77542905 51.0281094 2.94813232 40.28947871 2.09521484 29.55273438 C2.02388556 28.65428425 1.95255629 27.75583412 1.87906551 26.83015823 C1.54552366 22.63366114 1.21029804 18.43730755 0.87251282 14.2411499 C0.75573144 12.77958299 0.63896514 11.31801487 0.5222168 9.85644531 C0.4207988 8.59680969 0.3193808 7.33717407 0.21488953 6.03936768 C0.0728222 4.02998714 0 2.0143965 0 0 Z " fill="#EAEAEA" transform="translate(528,1172)"/>
<path d="M0 0 C187.44 0 374.88 0 568 0 C568 6.80260865 567.95369734 13.46379069 567.51953125 20.23046875 C567.46665955 21.08271027 567.41378784 21.93495178 567.35931396 22.8130188 C567.18279304 25.60491919 566.99876632 28.39623352 566.8125 31.1875 C566.71604691 32.6483754 566.71604691 32.6483754 566.61764526 34.13876343 C565.25007664 54.57207864 563.16621818 74.909274 560.94274902 95.26441956 C559.74394917 106.2673218 558.65743629 117.28100442 557.57449341 128.29580688 C556.77025366 136.46778992 555.93821731 144.6338656 555.01171875 152.79296875 C553.85808304 162.99396686 552.92883244 173.21399376 552 183.4375 C551.74959192 186.18832081 551.49859957 188.93908343 551.24609375 191.68971252 C551.09120239 193.37737333 550.93739968 195.06513476 550.78515625 196.7530365 C549.95133789 205.84692518 548.95630862 214.9150681 548 224 C367.16 224 186.32 224 0 224 C0 150.08 0 76.16 0 0 Z " fill="#FEFEFE" transform="translate(1020,376)"/>
<path d="M0 0 C91.08 0 182.16 0 276 0 C273.69497245 29.96535812 273.69497245 29.96535812 272.40283203 43.05737305 C271.98860692 47.27084505 271.57651177 51.4845065 271.16748047 55.69848633 C270.82022846 59.27551055 270.47276708 62.85251329 270.12438965 66.4294281 C269.19577904 75.96518944 268.27719255 85.50188374 267.36328125 95.0390625 C267.29312302 95.77119776 267.22296478 96.50333302 267.15068054 97.25765419 C266.78930972 101.02927052 266.42809311 104.80090161 266.06695557 108.57254028 C265.39571153 115.58252793 264.72354895 122.59242754 264.0514679 129.60233498 C263.82371949 131.97786383 263.59599941 134.35339539 263.36828613 136.72892761 C262.38943694 146.94009776 261.409847 157.15119665 260.42981339 167.36225319 C260.20715443 169.68231022 259.98453536 172.00237107 259.76193237 174.32243347 C259.6886717 175.0859868 259.61541103 175.84954012 259.53993034 176.63623142 C259.3923723 178.17415634 259.24481599 179.71208142 259.09726143 181.25000668 C258.73226192 185.05404849 258.3671263 188.85807715 258.00170898 192.66207886 C256.48150271 208.48753514 254.96722356 224.31349581 253.47591591 240.14170456 C253.26417517 242.388003 253.05210128 244.6342697 252.83988953 246.88052368 C252.73694501 247.97022367 252.73694501 247.97022367 252.63192081 249.08193779 C252.49538796 250.52706489 252.35883913 251.97219049 252.22227383 253.41731453 C251.82939743 257.57711942 251.43889397 261.73713835 251.05021 265.89733696 C250.75682413 269.0307047 250.46015669 272.1637622 250.1640625 275.296875 C250.06022751 276.41712067 249.95639252 277.53736633 249.84941101 278.69155884 C249.75166885 279.71985809 249.6539267 280.74815735 249.55322266 281.80761719 C249.46996735 282.69551941 249.38671204 283.58342163 249.30093384 284.49822998 C248.99573012 287.03549705 248.53445837 289.50184253 248 292 C234.87555469 295.96658027 221.65892427 299.55312481 208.41259766 303.08837891 C202.85647595 304.5726083 197.30319431 306.06736149 191.75 307.5625 C190.6679126 307.85366699 189.5858252 308.14483398 188.47094727 308.44482422 C181.64366372 310.28335498 174.82035703 312.13595122 168 314 C156.77961916 317.06660445 145.54762354 320.08951869 134.31445312 323.10888672 C128.87589523 324.57108003 123.4379764 326.03564586 118 327.5 C115.83333648 328.08334501 113.66666981 328.66667834 111.5 329.25 C110.4275 329.53875 109.355 329.8275 108.25 330.125 C98.5 332.75 98.5 332.75 95.24902344 333.62524414 C93.0855994 334.20771696 90.92218791 334.79023638 88.75878906 335.37280273 C83.29261283 336.84468714 77.82621082 338.31572343 72.359375 339.78515625 C62.23511878 342.50724401 52.11298313 345.23629504 42 348 C33.64850186 350.28070556 25.29467437 352.5526755 16.9375 354.8125 C15.82439453 355.11478516 14.71128906 355.41707031 13.56445312 355.72851562 C12.52095703 356.01017578 11.47746094 356.29183594 10.40234375 356.58203125 C9.47929443 356.83186768 8.55624512 357.0817041 7.60522461 357.33911133 C5.09006763 357.97715181 2.54443402 358.4911132 0 359 C0 240.53 0 122.06 0 0 Z " fill="#EF652A" transform="translate(1024,1060)"/>
<path d="M0 0 C105.6 0 211.2 0 320 0 C320 76.56 320 153.12 320 232 C221 232 122 232 20 232 C17.68876879 208.30988009 15.38091572 184.64844347 13.46386719 160.92749023 C13.32571731 159.22915044 13.1874902 157.53081693 13.04919434 155.83248901 C12.97984177 154.98004986 12.9104892 154.1276107 12.83903503 153.24934006 C12.16817145 145.0237045 11.48640551 136.79896059 10.8046875 128.57421875 C10.72913132 127.66193323 10.65357513 126.74964771 10.57572937 125.80971718 C9.04480896 107.3452482 7.41786541 88.89004711 5.75 70.4375 C5.62409597 69.04321369 5.49820072 67.64892659 5.37231445 66.25463867 C4.89801356 61.00288798 4.42322481 55.75118162 3.94769287 50.49954224 C3.05368055 40.61978711 2.17198319 30.73904354 1.31799316 20.85574341 C1.19207798 19.4003319 1.06540436 17.94498576 0.93786621 16.48971558 C0.77152224 14.5896857 0.60830881 12.68938249 0.4453125 10.7890625 C0.35781738 9.77537598 0.27032227 8.76168945 0.18017578 7.71728516 C0.00993242 5.14979377 0 2.57312939 0 0 Z " fill="#E34F26" transform="translate(704,600)"/>
</svg>
