<?xml version="1.0" encoding="UTF-8"?>
<svg version="1.1" xmlns="http://www.w3.org/2000/svg" width="2560" height="1383">
<path d="M0 0 C2.09209612 -0.00072878 4.18418629 -0.00289592 6.27628088 -0.00549722 C13.68257687 -0.01466402 21.08885529 -0.01884422 28.49515676 -0.01804566 C34.48248899 -0.01751637 40.46975534 -0.02450834 46.45707083 -0.03855348 C83.82110956 -0.12413173 121.08222335 0.28896234 158.41019583 2.16725707 C159.19985739 2.20620212 159.98951895 2.24514716 160.80310965 2.28527236 C170.23990066 2.75068831 179.6697158 3.29833072 189.09769583 3.91725707 C190.37431082 3.99962615 191.65092581 4.08199523 192.9662261 4.16686034 C287.48913661 10.29435974 381.60031857 22.23533867 793.41019583 133.16725707 C794.11537344 133.44829284 794.82055105 133.7293286 795.54709768 134.01888061 C825.03373758 145.79510126 854.00468049 158.82024613 882.52396536 172.76686645 C886.02046446 174.46335764 889.53750682 176.11283042 893.05912161 177.7563684 C902.47110838 182.1535157 911.68260338 186.86952658 920.83353567 191.78542113 C923.54864582 193.24150636 926.27034704 194.68480873 928.99222708 196.12819457 C943.1343093 203.66709847 956.9629145 211.67380128 970.69193411 219.93703246 C973.45340737 221.59792542 976.22480016 223.24129541 978.9995513 224.87990355 C990.07482079 231.44035422 1000.90380166 238.29482891 1011.59281301 245.46681762 C1014.03830671 247.10684333 1016.48948161 248.73809725 1018.94144583 250.36842895 C1034.11128541 260.4886823 1048.89844772 271.12484765 1063.41019583 282.16725707 C1063.93419973 282.56509398 1064.45820364 282.9629309 1064.99808645 283.37282348 C1082.55429571 296.71700032 1099.37795956 310.9623945 1115.72269583 325.76100707 C1117.183279 327.06873852 1118.6482129 328.37193511 1120.13466787 329.65018249 C1125.16356223 333.98201969 1129.9161813 338.52692594 1134.60160208 343.22585082 C1135.35054235 343.97383437 1136.09948263 344.72181792 1136.87111807 345.49246764 C1138.44290808 347.06358171 1140.01345431 348.63594099 1141.58280325 350.2094934 C1143.96620886 352.59825553 1146.35490651 354.98163153 1148.7441802 357.3645227 C1150.2803082 358.90131157 1151.81612591 360.43841067 1153.35160208 361.97585082 C1154.05595892 362.67818343 1154.76031576 363.38051604 1155.48601675 364.10413146 C1159.99280767 368.63198797 1164.25539326 373.31552256 1168.41019583 378.16725707 C1169.36013566 379.26151172 1170.31055605 380.35534965 1171.26175833 381.44850707 C1229.72950538 449.14471072 1273.17893464 530.1328188 1282.41019583 620.16725707 C1282.55158987 621.43557372 1282.55158987 621.43557372 1282.69584036 622.72951293 C1291.83191638 714.78487637 1260.88993517 807.83220801 1207.41019583 882.16725707 C1206.87426809 882.91426879 1206.33834036 883.66128051 1205.78617239 884.43092895 C1197.69999388 895.65840099 1189.26566662 906.5378447 1180.41019583 917.16725707 C1179.69718313 918.02891479 1179.69718313 918.02891479 1178.96976614 918.90797973 C1172.52355027 926.69170645 1165.80657483 934.17913613 1158.90433645 941.5598352 C1157.45217239 943.12209797 1156.01474994 944.69650059 1154.58207083 946.27663207 C1148.75910622 952.68479412 1142.77198719 958.90851195 1136.66019583 965.04225707 C1135.96321585 965.74382934 1135.26623587 966.4454016 1134.54813528 967.16823363 C1130.59967191 971.10499716 1126.54771315 974.85570354 1122.32572317 978.49684691 C1119.34147218 981.09922332 1116.47761523 983.8257285 1113.59769583 986.54225707 C1108.60474299 991.21409608 1103.50450826 995.66526022 1098.16410208 999.94069457 C1095.69861243 1001.93406918 1093.28487146 1003.97695714 1090.88211966 1006.04518676 C1083.35081032 1012.51605642 1075.50796453 1018.5315947 1067.58646536 1024.51442504 C1065.46385278 1026.12650571 1063.35486869 1027.75470337 1061.25003958 1029.38991332 C1015.6419245 1064.76309408 965.47781441 1094.81841398 914.21097708 1121.17116332 C910.77331521 1122.93867453 907.35013794 1124.72512915 903.95316458 1126.56960082 C852.22550827 1154.60273059 796.74075317 1176.39643364 741.504251 1196.40804076 C739.43546904 1197.15809407 737.36782382 1197.91121297 735.30033255 1198.66481566 C638.92720184 1233.72792933 538.55066752 1258.3382153 214.41019583 1304.16725707 C213.47030813 1304.23559752 212.53042044 1304.30393798 211.5620513 1304.37434936 C189.33896 1305.98893995 167.10790744 1307.31150264 144.84769583 1308.29225707 C143.98263418 1308.33086852 143.11757254 1308.36947997 142.2262969 1308.40926147 C135.62215242 1308.6994371 129.0169136 1308.94369211 122.41019583 1309.16725707 C120.49631567 1309.23241012 120.49631567 1309.23241012 118.54377127 1309.29887938 C92.5201721 1310.16649891 66.50934689 1310.36853366 40.47269583 1310.35475707 C39.46465273 1310.35463748 38.45660963 1310.35451789 37.41801977 1310.35439467 C1.70809102 1310.34905935 -33.91361852 1309.81379162 -69.58980417 1308.16725707 C-70.7209968 1308.1163391 -71.85218943 1308.06542113 -73.01766062 1308.0129602 C-188.61035605 1302.79309785 -303.79965553 1288.57837795 -637.51802683 1205.54616332 C-641.21808559 1204.29054379 -644.92486538 1203.05577099 -648.63277292 1201.82350707 C-725.90068521 1175.93009188 -802.24998446 1142.41260573 -872.91060495 1101.70387816 C-875.54412434 1100.19345616 -878.18785463 1098.70282518 -880.83589792 1097.21803832 C-912.54436559 1079.39413996 -943.57070415 1059.35408759 -972.71578074 1037.5676477 C-974.68488667 1036.09620533 -976.66412098 1034.63912032 -978.64449167 1033.18288207 C-987.59764289 1026.56803295 -996.26481639 1019.64118162 -1004.8651948 1012.57594848 C-1007.12868925 1010.72708622 -1009.42063722 1008.91534962 -1011.71480417 1007.10475707 C-1021.58318823 999.2199678 -1031.0349199 990.87162085 -1040.26167917 982.24928832 C-1042.06205179 980.5670098 -1043.87863591 978.91160084 -1045.72383738 977.27834105 C-1052.56208405 971.22160829 -1059.05021291 964.86032336 -1065.49532175 958.39211059 C-1067.28155087 956.60049757 -1069.07309765 954.81432652 -1070.8651948 953.0285852 C-1076.65544931 947.24169303 -1082.28349067 941.40642624 -1087.58980417 935.16725707 C-1089.20948234 933.39155486 -1090.83392135 931.620174 -1092.46480417 929.85475707 C-1097.38161866 924.45069069 -1102.05265544 918.8920712 -1106.58980417 913.16725707 C-1107.10027292 912.52401488 -1107.61074167 911.8807727 -1108.13667917 911.21803832 C-1153.72542708 853.59300884 -1188.49892238 788.33221573 -1201.33980417 715.41725707 C-1201.5385615 714.29488647 -1201.73731882 713.17251586 -1201.94209909 712.01613402 C-1205.10032246 693.18727471 -1205.99856625 674.55004277 -1205.96480417 655.47975707 C-1205.96426035 654.31872466 -1205.96371653 653.15769225 -1205.96315622 651.96147704 C-1205.88283159 614.52602033 -1199.94842425 578.89143203 -1188.58980417 543.16725707 C-1188.20236032 541.93314086 -1188.20236032 541.93314086 -1187.80708933 540.67409301 C-1172.38163055 492.18841847 -1146.07524013 446.89756114 -1114.58980417 407.16725707 C-1113.92851511 406.3242102 -1113.26722605 405.48116332 -1112.58589792 404.61256957 C-1104.89352175 394.88443324 -1096.82494449 385.43885669 -1088.58980417 376.16725707 C-1087.66747995 375.12311645 -1087.66747995 375.12311645 -1086.72652292 374.05788207 C-1081.74791329 368.46983811 -1076.65085003 362.99730907 -1071.52730417 357.54225707 C-1070.86674021 356.83786498 -1070.20617624 356.13347289 -1069.52559519 355.40773559 C-1063.11059859 348.59860566 -1056.619972 341.98266451 -1049.52339792 335.88210082 C-1047.6348582 334.20721408 -1045.8582477 332.4677812 -1044.08980417 330.66725707 C-1040.42677118 326.9551656 -1036.5417307 323.56703059 -1032.58980417 320.16725707 C-1031.43689294 319.16269965 -1030.28460282 318.15742916 -1029.13277292 317.15163207 C-1021.72331997 310.68934528 -1014.25274391 304.32888616 -1006.58980417 298.16725707 C-1006.01762156 297.70464477 -1005.44543894 297.24203246 -1004.85591745 296.7654016 C-996.56061209 290.058884 -988.1987169 283.46949931 -979.58980417 277.16725707 C-978.9633198 276.70802855 -978.33683542 276.24880004 -977.69136667 275.77565551 C-959.51280588 262.481277 -941.14311774 249.47308925 -921.97310495 237.64137816 C-919.50434788 236.11440057 -917.04458054 234.5736783 -914.58589792 233.03053832 C-901.41947857 224.78982066 -888.0655721 216.89084834 -874.58980417 209.16725707 C-873.84295359 208.73912719 -873.096103 208.3109973 -872.32662058 207.86989379 C-838.9365022 188.82937852 -804.55089249 171.71463982 -769.48244333 156.01558471 C-767.75332987 155.24055333 -766.02573425 154.46213787 -764.29830027 153.68337035 C-684.90073981 117.90744541 -601.80151876 90.13053237 -517.58980417 68.16725707 C-516.53748606 67.89268676 -515.48516794 67.61811645 -514.4009614 67.33522582 C-442.25787027 48.55792656 -369.31226666 34.13968659 -295.58980417 23.16725707 C-293.98319925 22.92715911 -293.98319925 22.92715911 -292.34413767 22.68221068 C-201.68597145 9.16824326 -109.01965954 0.711845 0 0 Z " fill="#7579B0" transform="translate(1241.5898041725159,35.83274292945862)"/>
<path d="M0 0 C1.51350914 -0.00570791 3.02701398 -0.0126738 4.54051208 -0.02079773 C8.63774102 -0.03869928 12.73475544 -0.03756628 16.8320117 -0.03185534 C20.25879785 -0.02875869 23.68554308 -0.03486135 27.1123234 -0.04089409 C35.20040536 -0.05492827 43.28838168 -0.05338768 51.37646484 -0.04199219 C59.7056833 -0.03051588 68.03457958 -0.04458086 76.36375558 -0.07138866 C83.52833229 -0.09358025 90.69280813 -0.10017515 97.85741675 -0.09431225 C102.13057206 -0.09094926 106.40352095 -0.0933136 110.67664719 -0.11056328 C114.69709259 -0.12608533 118.71706271 -0.12201911 122.7374897 -0.10325813 C124.20759175 -0.09958653 125.67772943 -0.10263885 127.14779854 -0.11314392 C137.13982206 -0.17905971 146.00400069 0.64825498 153.70166016 7.67749023 C160.06801396 15.42935906 161.669287 22.65071008 161.11962891 32.40405273 C160.58630956 36.27921108 159.79409263 40.07588244 158.95947266 43.89624023 C158.49676324 46.10809008 158.03437189 48.32000648 157.57226562 50.53198242 C157.33175476 51.66502808 157.0912439 52.79807373 156.84344482 53.9654541 C155.66495466 59.56405256 154.55335149 65.1757997 153.43603516 70.78686523 C152.98213259 73.05254642 152.52794717 75.31817096 152.07348633 77.58374023 C148.18346531 96.99785374 144.2987503 116.41202678 140.5690918 135.85766602 C139.03875364 143.8331715 137.49589045 151.80622849 135.95166016 159.77905273 C135.67483519 161.20873826 135.39802036 162.63842575 135.12121582 164.06811523 C134.45413652 167.51345027 133.7869221 170.95875912 133.11962891 174.40405273 C133.70673582 174.40128736 134.29384274 174.39852198 134.89874077 174.3956728 C149.3645191 174.32863206 163.83028815 174.27940065 178.29618645 174.24861622 C185.29256768 174.23332317 192.28884252 174.21249808 199.28515625 174.17773438 C257.75373426 173.89303611 257.75373426 173.89303611 283.90441895 177.02563477 C288.25859438 177.53810463 292.62057901 177.95059023 296.98532104 178.36167908 C326.66875736 181.37060019 357.05139134 189.65742199 383.11962891 204.40405273 C383.70131836 204.73260254 384.28300781 205.06115234 384.88232422 205.3996582 C392.50795723 209.77148866 399.44390783 214.6991473 406.11962891 220.40405273 C407.33392578 221.39985352 407.33392578 221.39985352 408.57275391 222.41577148 C434.80447384 244.72923136 445.27930334 277.46622753 450.11962891 310.40405273 C450.33727905 309.27821777 450.33727905 309.27821777 450.55932617 308.12963867 C454.28205912 288.87642379 458.01796029 269.62580027 461.76344299 250.3769989 C462.68966246 245.61628707 463.61474538 240.85535582 464.53895569 236.09425354 C465.16518299 232.86824691 465.79170982 229.64229848 466.41824341 226.41635132 C466.71304664 224.89800805 467.00771022 223.37963765 467.30221558 221.86123657 C467.97746916 218.37994551 468.65472641 214.89908093 469.3371582 211.41918945 C469.87420998 208.67820313 470.39697066 205.93492783 470.91186523 203.18969727 C471.16982553 201.84055775 471.42787847 200.49143594 471.68603516 199.14233398 C472.02163452 197.3582312 472.02163452 197.3582312 472.36401367 195.53808594 C474.25106686 187.71123561 479.44318945 181.7775081 486.11962891 177.40405273 C492.95003845 174.23061884 498.83472996 173.98096344 506.30259705 174.02983093 C507.51685901 174.02585653 508.73112097 174.02188212 509.98217875 174.01778728 C513.33649629 174.0098511 516.69029933 174.01530212 520.04457462 174.02653778 C523.66936105 174.03540624 527.2941134 174.02692801 530.91889954 174.02067566 C538.01826747 174.01119613 545.11753359 174.01778289 552.21689396 174.0299386 C560.50552026 174.04359738 568.79412261 174.04191689 577.0827573 174.03980527 C591.89641952 174.03661572 606.71003368 174.04827435 621.52368164 174.06787109 C635.84889189 174.08681639 650.17404569 174.0939739 664.49926758 174.08837891 C680.12715156 174.08229309 695.75501071 174.08255362 711.38289267 174.09386474 C713.05679643 174.09507186 714.73070019 174.09627785 716.40460396 174.09748268 C717.22795933 174.09808622 718.05131471 174.09868976 718.89962025 174.09931159 C724.65379063 174.10316254 730.40795168 174.10280793 736.16212273 174.10089684 C743.20448184 174.09875334 750.24679198 174.10415753 757.28913742 174.11851039 C760.87095801 174.12565702 764.45270806 174.12991732 768.03453445 174.12526703 C790.61121136 174.09955506 812.96719581 175.1074526 835.30712891 178.52905273 C836.32490921 178.68428406 836.32490921 178.68428406 837.36325073 178.84265137 C888.66784622 186.78992804 942.48485077 208.08725737 976.11962891 249.40405273 C977.04406032 250.50435327 977.9685444 251.60460957 978.89306641 252.70483398 C996.41394719 273.80546022 1009.59912239 299.72925334 1016.11962891 326.40405273 C1016.29091309 327.09128418 1016.46219727 327.77851562 1016.63867188 328.48657227 C1026.74873359 369.75941243 1024.54350989 417.21037327 1015.11962891 458.40405273 C1014.86084961 459.56952637 1014.60207031 460.735 1014.33544922 461.93579102 C1009.86888305 481.81831917 1003.99533386 500.56852909 996.11962891 519.40405273 C995.6992334 520.41177734 995.27883789 521.41950195 994.84570312 522.45776367 C982.40722125 551.85781173 965.07395339 579.44563055 943.38525391 602.92749023 C941.52075054 604.9655853 939.71414369 607.03366405 937.91259766 609.12670898 C933.86102768 613.76883944 929.54860032 618.12219004 925.18212891 622.46655273 C924.42222656 623.23032227 923.66232422 623.9940918 922.87939453 624.78100586 C918.12331641 629.52896088 913.24264902 634.05545022 908.11962891 638.40405273 C907.51417236 638.92153076 906.90871582 639.43900879 906.28491211 639.97216797 C896.08537606 648.61754131 885.42733221 656.27724372 874.11962891 663.40405273 C873.44383789 663.83282715 872.76804687 664.26160156 872.07177734 664.70336914 C838.67512025 685.69297977 801.33095647 698.60630517 762.36328125 704.05834961 C759.81553308 704.45090798 757.29189452 704.93421896 754.76025391 705.41967773 C749.26937968 706.43323131 743.80832654 706.97850079 738.24462891 707.40405273 C736.43463296 707.54863821 734.62474167 707.69453815 732.81494141 707.84155273 C731.83717239 707.91793976 730.85940338 707.99432678 729.852005 708.07302856 C727.21738661 708.30669268 724.60681026 708.57544255 721.98234558 708.88961792 C706.57759654 710.66080399 691.21199865 710.66877289 675.72992873 710.60684061 C672.00244017 710.59413068 668.27494647 710.59314712 664.54743958 710.59078979 C657.52512196 710.58463339 650.50286842 710.56830384 643.48057872 710.54809082 C635.4705797 710.52554721 627.46057722 710.51469252 619.45055425 710.50469995 C603.00687527 710.48393065 586.56326033 710.44887151 570.11962891 710.40405273 C570.02708879 711.50541565 570.02708879 711.50541565 569.93267918 712.62902832 C569.84802875 713.60343872 569.76337831 714.57784912 569.67616272 715.58178711 C569.59384431 716.54290405 569.5115259 717.504021 569.42671299 718.4942627 C568.94838726 723.02666124 568.04733722 727.44645739 567.11572266 731.90405273 C566.81744316 733.37047966 566.81744316 733.37047966 566.51313782 734.86653137 C566.08704721 736.95998325 565.65849269 739.05293492 565.22766113 741.14541626 C564.0779387 746.73280984 562.94792416 752.32417473 561.81884766 757.91577148 C561.58968658 759.04955734 561.36052551 760.1833432 561.12442017 761.35148621 C558.92402361 772.28557724 556.87932015 783.24607023 554.86962891 794.21655273 C552.44434957 807.43467787 549.91819278 820.61641156 547.13085938 833.76367188 C546.02044304 839.00611084 544.94681395 844.24607423 544.00244141 849.52124023 C543.74382324 850.9562085 543.74382324 850.9562085 543.47998047 852.42016602 C543.17221766 854.15373137 542.87357166 855.88896024 542.58740234 857.6262207 C540.97745865 866.68643575 537.74038708 874.96306261 530.18212891 880.59155273 C525.13676682 883.57758336 521.46224349 884.65431881 515.57389832 884.67147827 C514.93006944 884.67600938 514.28624057 884.6805405 513.62290174 884.68520892 C511.4735437 884.69783151 509.32443975 884.69623397 507.17504883 884.69458008 C505.63065771 884.70056671 504.08626958 884.70737257 502.54188538 884.7149353 C498.35167926 884.73258969 494.16155486 884.73729047 489.97131515 884.73856688 C487.35153274 884.73998946 484.73177105 884.7442611 482.11199379 884.74956131 C472.96698312 884.76806037 463.82203072 884.77623216 454.67700195 884.7746582 C446.16150474 884.77345713 437.64626113 884.79455305 429.13082808 884.82614553 C421.812604 884.85232576 414.49446264 884.86302475 407.1761921 884.86174738 C402.80857031 884.86123822 398.44117388 884.86689575 394.07359886 884.88810349 C389.9637418 884.90751519 385.85432439 884.90759054 381.74445152 884.89307022 C380.24005997 884.89098458 378.73564069 884.89566848 377.23129654 884.90779114 C367.65916746 884.9799027 360.82549303 884.57515957 353.36962891 877.96655273 C345.85607323 869.40944766 344.29113542 863.1846432 344.8984375 851.88067627 C345.57923365 844.25797615 347.33688623 836.75915087 348.93588257 829.28741455 C349.87699203 824.88862564 350.78311268 820.4828405 351.69096375 816.0770874 C352.15686663 813.81637353 352.62440942 811.55599701 353.09358215 809.29595947 C355.31472446 798.56724307 357.33517945 787.80591379 359.30712891 777.02905273 C359.94787227 773.53925095 360.58989847 770.04968726 361.23291016 766.56030273 C361.46584778 765.29554359 361.46584778 765.29554359 361.70349121 764.00523376 C363.66935316 753.37225973 365.75656125 742.76250125 367.86254883 732.15649414 C369.48739975 723.93242322 370.92551499 715.70234365 372.11962891 707.40405273 C370.60585159 708.1335614 370.60585159 708.1335614 369.06149292 708.87780762 C362.59980424 711.27806216 355.84925754 710.83952401 349.04980469 710.82397461 C347.52791728 710.83132333 346.00603544 710.83991189 344.48416138 710.84963989 C340.36834271 710.87178004 336.25272469 710.87479036 332.13685465 710.87289238 C328.69271296 710.87277233 325.24861325 710.8813504 321.80448329 710.8896699 C313.67463982 710.90887694 305.54489901 710.91179763 297.41503906 710.9050293 C289.04656983 710.89839016 280.67854154 710.92125378 272.31016171 710.95834303 C265.10817949 710.98909672 257.9063387 711.00039394 250.70429218 710.99650621 C246.41038328 710.99444459 242.11681766 710.9998268 237.82297134 711.0243988 C233.78273881 711.04675762 229.74322045 711.0447132 225.70298386 711.02447128 C224.22684416 711.0210773 222.75065552 711.02608042 221.27458191 711.04045486 C211.46074942 711.12937295 203.36525192 710.35932395 195.98224068 703.38497162 C189.25222784 696.21264825 187.3383125 689.69101226 187.63134766 679.96264648 C188.50021998 666.91977158 191.86023886 653.95083706 194.59262085 641.19613647 C197.05239372 629.71171762 199.32438793 618.20664219 201.43972778 606.65383911 C202.30074244 601.95483895 203.17088617 597.25753176 204.04150391 592.56030273 C204.21674088 591.61465958 204.39197784 590.66901642 204.57252502 589.69471741 C206.22913388 580.77619166 207.94266352 571.86924952 209.68212891 562.96655273 C209.89562485 561.87372482 209.89562485 561.87372482 210.11343384 560.75881958 C210.82811893 557.10275345 211.54412938 553.44694848 212.26074219 549.79125977 C213.57478312 543.0844293 214.87681166 536.37526211 216.18002319 529.6663208 C216.62086841 527.39767407 217.06218616 525.12911977 217.50366211 522.8605957 C218.78256329 516.28834301 220.06043825 509.71590881 221.32945251 503.14173889 C222.00838622 499.62479229 222.6887275 496.10811886 223.36962891 492.59155273 C223.57602493 491.5252211 223.57602493 491.5252211 223.78659058 490.43734741 C225.75008837 480.3062746 227.75987068 470.18495822 229.79541016 460.06811523 C230.1481324 458.31482155 230.1481324 458.31482155 230.50798035 456.52610779 C230.74567642 455.34460648 230.9833725 454.16310516 231.22827148 452.94580078 C236.62922814 426.14601038 236.62922814 426.14601038 241.68212891 399.27905273 C241.90908447 398.02648682 242.13604004 396.7739209 242.36987305 395.48339844 C242.96869 392.12607016 243.54873151 388.76622968 244.11962891 385.40405273 C244.31177979 384.30794678 244.50393066 383.21184082 244.7019043 382.08251953 C245.91120844 374.83473883 246.45675906 367.8112637 246.43212891 360.46655273 C246.44824219 359.47848633 246.46435547 358.49041992 246.48095703 357.47241211 C246.48456901 352.09416993 246.36221143 347.93498278 243.11962891 343.40405273 C231.65254396 335.58660975 213.57813176 335.27623813 200.11376953 335.19873047 C199.03970856 335.18883087 197.96564758 335.17893127 196.85903931 335.16873169 C193.33134111 335.13730443 189.80362948 335.1124339 186.27587891 335.08764648 C183.82108218 335.06706073 181.36628887 335.04606384 178.91149902 335.02467346 C172.46719132 334.96962028 166.02285251 334.92013742 159.57849121 334.87182617 C152.99582163 334.82148847 146.41319692 334.76586658 139.83056641 334.71069336 C126.9269592 334.60331683 114.02331362 334.50164715 101.11962891 334.40405273 C101.05598963 335.07572039 100.99235035 335.74738804 100.92678261 336.43940926 C100.84061872 337.3284841 100.75445484 338.21755894 100.66567993 339.13357544 C100.53928351 340.45045192 100.53928351 340.45045192 100.41033363 341.79393196 C99.98616059 345.60241102 99.27616286 349.32982702 98.51806641 353.08374023 C98.3609166 353.88178574 98.20376678 354.67983124 98.04185486 355.50205994 C97.70507036 357.20927145 97.36616904 358.91606655 97.02529907 360.62246704 C96.48373495 363.33358893 95.94783503 366.04577887 95.41333008 368.75830078 C94.67704989 372.4923589 93.93864458 376.22598558 93.19824219 379.95922852 C91.59584076 388.0423265 90.00962846 396.12856084 88.43212891 404.21655273 C88.21520386 405.32732681 88.21520386 405.32732681 87.99389648 406.46054077 C85.84687426 417.46885173 83.83023949 428.4955027 81.88793945 439.54199219 C80.41666335 447.86436814 78.80907783 456.15203807 77.13037109 464.43481445 C75.28928847 473.520034 73.51001647 482.61639298 71.74462891 491.71655273 C71.44167129 493.27645263 71.13869261 494.83634843 70.83569336 496.39624023 C69.52896884 503.12614405 68.22460843 509.85649575 66.92637634 516.58804321 C66.26293774 520.02696688 65.59787318 523.46557475 64.93212891 526.90405273 C64.79565948 527.60921021 64.65919006 528.31436768 64.51858521 529.04089355 C62.48458363 539.53626557 60.39947052 550.02094817 58.29150391 560.50170898 C58.04013168 561.7518277 57.78875946 563.00194641 57.5297699 564.28994751 C57.27445999 565.55962372 57.01915009 566.82929993 56.75610352 568.13745117 C56.23138471 570.74713953 55.70670758 573.35683621 55.18212891 575.96655273 C55.05159748 576.61585251 54.92106606 577.26515228 54.78657913 577.93412781 C51.35963476 594.98590426 48.0104828 612.04716527 44.86962891 629.15405273 C42.42908376 642.42768449 39.94649122 655.69122373 37.3314209 668.9317627 C36.98715086 670.67828187 36.64519775 672.42525966 36.30578613 674.17272949 C35.83783518 676.57807495 35.36088052 678.98146181 34.88134766 681.38452148 C34.74728012 682.08145615 34.61321259 682.77839081 34.4750824 683.4964447 C32.70762394 692.21499303 29.87938175 699.36712494 23.11962891 705.40405273 C17.58927087 708.92521647 12.5437712 710.52529192 5.97972107 710.55795288 C4.69426895 710.56655334 3.40881683 710.57515381 2.08441162 710.58401489 C0.65661662 710.5884501 -0.77117882 710.59274846 -2.19897461 710.59692383 C-3.70041595 710.60482635 -5.20185539 710.61309539 -6.70329285 710.6217041 C-11.63860259 710.64791508 -16.57392075 710.66323455 -21.50927734 710.67749023 C-23.21006717 710.682851 -24.91085694 710.68822851 -26.61164665 710.69362259 C-33.68974479 710.71525329 -40.76784065 710.7339875 -47.84596348 710.74524498 C-57.9779567 710.76146681 -68.10956538 710.79459923 -78.24141365 710.85164583 C-85.3710831 710.89041422 -92.50065001 710.90988603 -99.63042206 710.91516554 C-103.88532101 710.91881065 -108.13980973 710.93074114 -112.39459419 710.96326828 C-116.40270221 710.99346943 -120.41015441 710.99961836 -124.41835213 710.98788452 C-125.88321891 710.98766476 -127.34811719 710.99588852 -128.81287766 711.01353836 C-138.63356498 711.12535672 -146.53240788 710.27486093 -154.01401615 703.46077538 C-161.30054329 695.91020067 -162.27061333 688.85996095 -162.10571289 678.62060547 C-161.83499457 671.52125623 -160.28262742 664.64685168 -158.81787109 657.71655273 C-158.49732 656.1446005 -158.17834557 654.57232603 -157.86083984 652.99975586 C-157.20265432 649.74604452 -156.53783811 646.49379702 -155.86816406 643.24243164 C-154.46026527 636.38053527 -153.13584576 629.50263302 -151.80917358 622.62466431 C-151.09434314 618.92281836 -150.37387243 615.22207111 -149.65380859 611.52124023 C-149.51063705 610.78482803 -149.36746552 610.04841583 -149.21995544 609.28968811 C-148.28629029 604.48774473 -147.35065243 599.68618849 -146.41400146 594.88482666 C-145.76655826 591.56563154 -145.11970637 588.2463213 -144.47290039 584.92700195 C-144.16443975 583.34491299 -143.85568949 581.76288046 -143.54663086 580.1809082 C-143.11808108 577.98720296 -142.69053052 575.79330507 -142.26318359 573.59936523 C-142.01971191 572.35171387 -141.77624023 571.1040625 -141.52539062 569.81860352 C-140.93366764 566.68618958 -140.39064572 563.55064586 -139.88037109 560.40405273 C-140.39253174 561.16528442 -140.39253174 561.16528442 -140.91503906 561.94189453 C-158.04891363 587.34996682 -177.10994691 612.27705377 -200.48583984 632.34545898 C-202.29390727 633.89986606 -204.08538417 635.47360029 -205.86865234 637.05639648 C-232.64875835 660.68054441 -263.44032851 678.12207119 -296.88037109 690.40405273 C-298.21249634 690.9101709 -298.21249634 690.9101709 -299.5715332 691.42651367 C-346.14007711 708.90487531 -398.44448667 710.61258647 -447.55496216 710.50544667 C-450.99415878 710.49906057 -454.43335696 710.49859759 -457.87255859 710.49742126 C-464.34226493 710.4943518 -470.81195373 710.48619961 -477.28165245 710.47607177 C-484.66537924 710.4647718 -492.04910702 710.45936574 -499.43284035 710.45437634 C-514.58202692 710.44401163 -529.73119723 710.42650017 -544.88037109 710.40405273 C-545.08533062 711.74644595 -545.08533062 711.74644595 -545.29443073 713.11595821 C-545.47403937 714.28868062 -545.65364801 715.46140303 -545.83869934 716.66966248 C-546.01658902 717.83271628 -546.1944787 718.99577009 -546.37775898 720.19406796 C-546.90169877 723.54026417 -547.49051051 726.86553941 -548.14208984 730.18920898 C-548.37017334 731.35991943 -548.59825684 732.53062988 -548.83325195 733.73681641 C-549.07567627 734.96762939 -549.31810059 736.19844238 -549.56787109 737.46655273 C-549.83057956 738.81065937 -550.09302322 740.15481779 -550.35522461 741.49902344 C-550.90990343 744.34098103 -551.465927 747.18267073 -552.02294922 750.02416992 C-552.880787 754.4025642 -553.73288868 758.78206123 -554.58349609 763.16186523 C-554.725439 763.89260757 -554.8673819 764.62334991 -555.0136261 765.37623596 C-555.30261096 766.86407102 -555.59157672 768.35190978 -555.88052368 769.8397522 C-557.64719389 778.93592795 -559.41396222 788.03207384 -561.19737244 797.12498474 C-561.78077652 800.10044135 -562.36268087 803.07619038 -562.94442749 806.05197144 C-563.2341424 807.53202218 -563.52452315 809.01194275 -563.81558228 810.49172974 C-565.53440299 819.23434212 -567.17335523 827.98521554 -568.70068359 836.76342773 C-569.00576789 838.49540613 -569.31110431 840.22734014 -569.61669922 841.95922852 C-570.19760554 845.25184262 -570.75846009 848.54701365 -571.30810547 851.8449707 C-573.24976922 863.10003222 -575.66740485 872.36570107 -584.72021484 879.93139648 C-589.654974 883.29559938 -593.51055042 884.77906241 -599.50839233 884.78500366 C-601.48495567 884.79769287 -601.48495567 884.79769287 -603.50144958 884.81063843 C-604.94986087 884.80480624 -606.39827092 884.79866178 -607.84667969 884.79223633 C-609.38136671 884.79630419 -610.9160508 884.80164728 -612.45072937 884.8081665 C-616.60994277 884.82182272 -620.76893248 884.81654789 -624.9281497 884.80702925 C-629.28728038 884.79942112 -633.64639223 884.80648172 -638.00552368 884.81118774 C-645.3274478 884.8166431 -652.64928109 884.80946069 -659.97119141 884.79516602 C-668.42476168 884.7788521 -676.87811473 884.78411971 -685.3316797 884.80064523 C-692.59897571 884.81428095 -699.86620651 884.81616921 -707.13351119 884.80832922 C-711.46976441 884.80366259 -715.80591573 884.80299974 -720.14216232 884.81293869 C-724.22162547 884.82163605 -728.30081009 884.81553617 -732.3802433 884.79825592 C-733.87333655 884.79430529 -735.36645343 884.79540063 -736.85953712 884.80204391 C-747.00381376 884.84300092 -755.43900319 884.42345074 -763.27490234 877.28686523 C-769.47911417 870.01087959 -771.54328555 861.70806438 -770.88037109 852.40405273 C-770.04644984 846.90657007 -768.93638213 841.47455729 -767.81787109 836.02905273 C-767.49784873 834.43420337 -767.17885879 832.83914654 -766.86083984 831.24389648 C-766.20059403 827.93611563 -765.53595487 824.62926359 -764.86816406 821.32299805 C-763.47975814 814.43161298 -762.14566352 807.52978858 -760.81082153 800.62786865 C-760.0865506 796.88610172 -759.35824418 793.1451203 -758.63037109 789.40405273 C-758.33868537 787.90405644 -758.0470187 786.40405644 -757.75537109 784.90405273 C-749.00537109 739.90405273 -749.00537109 739.90405273 -748.56781006 737.65376282 C-748.27633486 736.15473154 -747.98487163 734.65569793 -747.69342041 733.15666199 C-746.96142272 729.39182134 -746.22921287 725.62702218 -745.49658203 721.86230469 C-744.217681 715.28947674 -742.93968682 708.71649026 -741.67054749 702.14176941 C-737.73018996 681.73001018 -733.67626262 661.3421356 -729.58959961 640.95916748 C-726.19416261 624.02011091 -722.84709452 607.07394948 -719.59277344 590.10717773 C-718.36779441 583.7396377 -717.12813112 577.374955 -715.88928223 571.01010132 C-715.44442528 568.72453774 -714.99976825 566.43893535 -714.55517578 564.15332031 C-713.96067606 561.09707412 -713.36610882 558.04084107 -712.77148438 554.98461914 C-711.88951542 550.45131076 -711.00793469 545.91792694 -710.12646484 541.38452148 C-709.98247253 540.64402557 -709.83848022 539.90352966 -709.69012451 539.14059448 C-708.95948842 535.38308853 -708.22907134 531.6255402 -707.49902344 527.86791992 C-706.21783586 521.27460591 -704.93570001 514.68149412 -703.64480591 508.09007263 C-702.95137756 504.54911733 -702.25928978 501.00790096 -701.56787109 497.46655273 C-701.42700073 496.74513092 -701.28613037 496.02370911 -701.14099121 495.28042603 C-699.25765563 485.62282862 -697.41446786 475.95820863 -695.60302734 466.28686523 C-695.40366074 465.22276932 -695.20429413 464.1586734 -694.99888611 463.06233215 C-694.79614578 461.98021957 -694.59340546 460.89810699 -694.38452148 459.78320312 C-689.35719225 432.95397935 -684.07479511 406.18255193 -678.68859863 379.42327881 C-676.25240955 367.30565655 -673.90745485 355.17134478 -671.57958984 343.0324707 C-670.83262085 339.15626498 -670.07657166 335.28188065 -669.31787109 331.40795898 C-666.28075016 315.88866293 -663.29881771 300.36028797 -660.38208008 284.81787109 C-658.90111166 276.92742755 -657.40949408 269.03900904 -655.91456604 261.15119934 C-654.75030866 255.00751006 -653.59051784 248.86303379 -652.43847656 242.71704102 C-651.23213065 236.28736755 -650.0098697 229.86088469 -648.77746582 223.43615723 C-648.30872344 220.97906983 -647.84516269 218.52098759 -647.38708496 216.06188965 C-646.74643626 212.62754615 -646.08705967 209.1972828 -645.42333984 205.76733398 C-645.24028793 204.76231339 -645.05723602 203.75729279 -644.86863708 202.72181702 C-643.14495281 193.99709402 -640.31968409 185.22291693 -632.89754939 179.75170714 C-625.36428084 174.71881414 -618.67197822 173.82536782 -609.73382568 173.90284729 C-607.93610195 173.89454569 -607.93610195 173.89454569 -606.10206056 173.88607639 C-602.79582562 173.87486363 -599.49051755 173.88146032 -596.18435431 173.89581311 C-592.60910614 173.90696326 -589.03392308 173.89496547 -585.4586792 173.88597107 C-578.45499087 173.87205205 -571.45148317 173.87959063 -564.44780347 173.89464665 C-556.25740316 173.91157498 -548.06704704 173.90828665 -539.87663463 173.90455257 C-525.22257052 173.8986737 -510.56859224 173.91283245 -495.91455078 173.9375 C-481.77519491 173.96129782 -467.6359543 173.96855245 -453.49658203 173.95800781 C-438.05351441 173.94651129 -422.61050012 173.94478445 -407.16743302 173.95910591 C-405.50849549 173.96063141 -403.84955796 173.96215176 -402.19062042 173.96366692 C-401.3747768 173.96442473 -400.55893318 173.96518254 -399.71836703 173.96596332 C-394.0474633 173.97064903 -388.37658413 173.96883474 -382.70568085 173.96460152 C-323.84032753 173.92791146 -323.84032753 173.92791146 -302.22509766 175.74365234 C-301.53091594 175.80182857 -300.83673423 175.86000479 -300.1215167 175.91994393 C-238.90722732 181.29789866 -178.45502611 203.91460169 -137.390625 251.11645508 C-116.16424035 276.6533819 -103.936875 306.22211827 -96.88037109 338.40405273 C-94.74716068 331.62384874 -93.51297289 324.69310664 -92.19287109 317.71655273 C-91.92857685 316.33253323 -91.66391921 314.94858307 -91.39892578 313.56469727 C-90.98185589 311.38655186 -90.56499708 309.20836878 -90.14926147 307.02996826 C-89.20623382 302.09098373 -88.24970794 297.15480422 -87.28271484 292.22045898 C-83.73955089 274.12902088 -80.28927769 256.02127839 -76.88037109 237.90405273 C-70.97598198 206.54112495 -64.85513143 175.2293832 -58.58575439 143.93737793 C-54.08005119 121.44482877 -49.66574796 98.93911089 -45.43896484 76.39233398 C-44.99310428 74.01749269 -44.54722189 71.64265549 -44.10131836 69.26782227 C-43.22429082 64.59632516 -42.3516214 59.92404377 -41.48168945 55.2512207 C-39.66341862 45.52168565 -37.82344746 35.79930507 -35.72021484 26.12670898 C-35.56757172 25.41077072 -35.41492859 24.69483246 -35.25765991 23.9571991 C-33.43502085 15.79308019 -30.30036291 10.06818377 -23.91943359 4.69311523 C-16.12072331 -0.23710391 -9.04943533 -0.03079117 0 0 Z " fill="#FDFDFD" transform="translate(1171.88037109375,199.595947265625)"/>
<path d="M0 0 C1.52001266 -0.00576172 1.52001266 -0.00576172 3.07073265 -0.01163983 C4.19771268 -0.01077335 5.3246927 -0.00990687 6.48582363 -0.00901413 C8.26633536 -0.01347081 8.26633536 -0.01347081 10.08281702 -0.01801753 C13.39365976 -0.0252221 16.70445064 -0.02787877 20.01529753 -0.028615 C23.58171177 -0.03046105 27.14811465 -0.03800727 30.71452236 -0.04475021 C38.53041052 -0.05836647 46.34629358 -0.06436658 54.16219163 -0.06876087 C59.05423386 -0.07152416 63.94627411 -0.0757623 68.83831501 -0.08026505 C82.40839578 -0.0924741 95.97847495 -0.10276229 109.5485611 -0.10614014 C110.85330282 -0.10646949 110.85330282 -0.10646949 112.18440297 -0.10680549 C113.05626478 -0.10702377 113.92812658 -0.10724204 114.82640845 -0.10746694 C116.59296135 -0.10791039 118.35951426 -0.10835695 120.12606716 -0.10880661 C121.44046097 -0.10913875 121.44046097 -0.10913875 122.78140818 -0.10947761 C136.902044 -0.11340469 151.02262754 -0.13078681 165.14324326 -0.15416613 C179.67539096 -0.17802966 194.20751266 -0.19034916 208.73968023 -0.19150805 C216.88408458 -0.19241776 225.02842128 -0.19798729 233.17280674 -0.21632767 C240.12767048 -0.23193397 247.08244581 -0.23673196 254.03732378 -0.22858956 C257.57140168 -0.22475071 261.10530283 -0.2252674 264.63935757 -0.23964691 C329.81183534 -0.45902882 394.26230853 11.45181325 443.34359646 57.13142776 C444.02164333 57.75533401 444.69969021 58.37924026 445.39828396 59.02205276 C468.5392858 81.14076135 482.67382856 113.02645108 488.34359646 144.13142776 C488.56789333 145.27708206 488.56789333 145.27708206 488.79672146 146.44588089 C495.13645771 179.42890526 491.75067229 215.45646309 485.34359646 248.13142776 C485.16989529 249.03634964 484.99619411 249.94127151 484.81722927 250.87361526 C476.82763983 291.63381277 459.43718138 331.93549574 434.34359646 365.13142776 C433.90402615 365.71521194 433.46445583 366.29899612 433.01156521 366.90047073 C426.97702872 374.8675371 420.57913223 382.36591357 413.73178005 389.64168167 C412.29937712 391.17888228 410.89129346 392.73548623 409.48812771 394.29939651 C405.01519993 399.27614308 400.53483582 404.08855166 395.39047146 408.38924026 C393.92735511 409.63456449 392.5038942 410.9270897 391.10922146 412.24861526 C372.22259448 430.13812218 349.92868129 444.28172247 326.34359646 455.13142776 C325.64540798 455.45562698 324.94721951 455.7798262 324.2278738 456.11384964 C272.37926106 479.88890067 214.47501141 482.54444779 158.31401992 482.33421564 C154.28230628 482.32138706 150.25058676 482.32051331 146.21885586 482.31816483 C138.64445062 482.31204151 131.07010575 482.29576005 123.49572664 482.27546585 C114.84700876 482.25281502 106.19828741 482.24204144 97.54954708 482.23207498 C79.81419646 482.21138124 62.07890137 482.1763913 44.34359646 482.13142776 C44.21140083 483.00520128 44.07920521 483.8789748 43.94300365 484.7792263 C43.7668515 485.93549459 43.59069935 487.09176289 43.40920925 488.28306961 C43.23576363 489.42496813 43.062318 490.56686665 42.88361645 491.74336815 C42.10856323 496.60601504 41.15590944 501.42468882 40.17172146 506.24861526 C39.96886028 507.25589676 39.76599911 508.26317825 39.55699062 509.30098343 C39.12664101 511.43667174 38.69502454 513.57210512 38.26220608 515.70729446 C37.12550161 521.31615717 35.99878308 526.92702768 34.87094021 532.53767776 C34.649156 533.63977585 34.42737179 534.74187393 34.19886684 535.87736893 C31.75530833 548.031803 29.40506809 560.20322103 27.06771755 572.37849808 C26.28792454 576.41996071 25.49862561 580.45948194 24.70687771 584.49861526 C24.1271185 587.45948784 23.54774821 590.42043632 22.96859646 593.38142776 C22.82578243 594.11114792 22.68296841 594.84086807 22.53582668 595.59270096 C20.69101987 605.03248823 18.89901501 614.48087176 17.15609646 623.94002151 C16.9733215 624.93053513 16.79054653 625.92104874 16.60223293 626.94157791 C15.702543 631.8212242 14.80782108 636.70170991 13.92025661 641.5835762 C13.59534097 643.35345444 13.27031414 645.12331227 12.94515896 646.89314651 C12.7975613 647.71423401 12.64996365 648.5353215 12.49789333 649.38129044 C11.4569208 655.01810342 11.4569208 655.01810342 10.34359646 656.13142776 C8.5086516 656.22788805 6.66995059 656.2533012 4.8324728 656.25168228 C3.63628826 656.25305695 2.44010372 656.25443161 1.20767117 656.25584793 C-0.12991453 656.25230833 -1.46749998 656.24867351 -2.80508518 656.24495316 C-4.20422965 656.24467129 -5.60337427 656.24482901 -7.00251865 656.24539566 C-10.81226813 656.24568365 -14.6219864 656.23978674 -18.4317286 656.2328217 C-22.40891663 656.22658835 -26.3861053 656.22598438 -30.36329746 656.2247963 C-37.89978894 656.22168292 -45.43626598 656.21346946 -52.97275108 656.20344681 C-61.55060183 656.19228585 -70.12845324 656.18677526 -78.70630944 656.18175137 C-96.356349 656.17128685 -114.00637511 656.15368729 -131.65640354 656.13142776 C-131.50495002 654.38090197 -131.35129355 652.63056668 -131.19671726 650.88031387 C-131.06872336 649.41820685 -131.06872336 649.41820685 -130.93814373 647.92656231 C-130.57955481 644.36901416 -129.97279699 640.95566374 -129.27359104 637.44783401 C-129.13877323 636.76277283 -129.00395542 636.07771164 -128.86505222 635.37189102 C-128.42563179 633.14485182 -127.97850404 630.91943654 -127.53140354 628.69392776 C-127.21635524 627.10355076 -126.90191464 625.51305327 -126.58804417 623.92244339 C-125.93706373 620.62591305 -125.28350163 617.32991052 -124.62808323 614.0342598 C-123.26019346 607.14570286 -121.92429087 600.25096627 -120.58786106 593.35625076 C-119.86219893 589.61435332 -119.13417472 585.87291547 -118.40640354 582.13142776 C-118.11472571 580.63142994 -117.82305904 579.13142994 -117.53140354 577.63142776 C-116.65640354 573.13142776 -116.65640354 573.13142776 -115.78140354 568.63142776 C-115.63701344 567.88884216 -115.49262333 567.14625656 -115.34385777 566.38116837 C-115.05235567 564.8820307 -114.7608416 563.38289536 -114.46931553 561.88376236 C-113.73753249 558.12058769 -113.00596126 554.35737207 -112.27481174 550.59407425 C-110.99371183 544.00116591 -109.71165271 537.40846194 -108.42083836 530.81744766 C-107.72741001 527.27649236 -107.03532223 523.73527599 -106.34390354 520.19392776 C-106.132598 519.11179504 -106.132598 519.11179504 -105.91702366 518.00780106 C-104.03368808 508.35020365 -102.19050031 498.68558366 -100.37905979 489.01424026 C-100.17969318 487.95014435 -99.98032658 486.88604843 -99.77491856 485.78970718 C-99.57217823 484.7075946 -99.3694379 483.62548203 -99.16055393 482.51057816 C-94.1332247 455.68135438 -88.85082756 428.90992696 -83.46463108 402.15065384 C-81.028442 390.03303158 -78.68348729 377.89871981 -76.35562229 365.75984573 C-75.60865329 361.88364 -74.85259871 358.00925674 -74.09390354 354.13533401 C-71.47715461 340.76321135 -68.88348408 327.38766998 -66.37515354 313.99470901 C-66.17603367 312.93184677 -65.9769138 311.86898453 -65.77175999 310.77391434 C-65.56933689 309.69338791 -65.3669138 308.61286148 -65.15835667 307.49959183 C-60.13230095 280.67393069 -54.8500895 253.90626018 -49.46463108 227.15065384 C-47.03342925 215.05783819 -44.6923277 202.94849705 -42.36880589 190.83455276 C-41.14382686 184.46701273 -39.90416356 178.10233003 -38.66531467 171.73747635 C-38.22045772 169.45191277 -37.7758007 167.16631038 -37.33120823 164.88069534 C-36.73670851 161.82444915 -36.14214127 158.7682161 -35.54751682 155.71199417 C-34.66554787 151.17868579 -33.78396714 146.64530197 -32.90249729 142.11189651 C-32.75850498 141.3714006 -32.61451267 140.63090469 -32.46615696 139.86796951 C-31.73552086 136.11046356 -31.00510378 132.35291523 -30.27505589 128.59529495 C-28.99389799 122.00213369 -27.71178832 115.40917534 -26.42092991 108.81790543 C-23.6249004 94.54019475 -20.86118176 80.25709763 -18.16812229 65.95955276 C-17.95074909 64.80551453 -17.73337589 63.65147629 -17.50941563 62.46246719 C-16.4354809 56.75700804 -15.36403863 51.0510923 -14.29580784 45.34456253 C-12.21519211 34.24747481 -10.09910147 23.15771662 -7.91421604 12.08064651 C-7.70296085 10.99628815 -7.49170567 9.91192978 -7.27404881 8.79471207 C-7.07683231 7.80327698 -6.87961582 6.81184189 -6.67642307 5.79036331 C-6.50321537 4.91252686 -6.33000767 4.0346904 -6.15155125 3.13025284 C-5.22580162 -0.6068372 -3.54009708 0.0050062 0 0 Z " fill="#000000" transform="translate(560.6564035415649,400.8685722351074)"/>
<path d="M0 0 C36.61208631 -0.04592064 73.22416751 -0.08109152 109.83627676 -0.10213066 C114.17267088 -0.10463165 118.50906495 -0.10722033 122.84545898 -0.10986328 C123.7086455 -0.1103879 124.57183202 -0.11091252 125.4611757 -0.11145304 C139.3815421 -0.12012189 153.30189173 -0.13587216 167.22224823 -0.15430559 C181.53850467 -0.17310315 195.85475242 -0.1841374 210.17102069 -0.18817699 C218.98304402 -0.19090176 227.79501996 -0.19946192 236.60702869 -0.21583293 C242.67498157 -0.22652195 248.74291047 -0.22957415 254.81087206 -0.22700275 C258.29568282 -0.22573968 261.78041165 -0.22747461 265.26520729 -0.23841095 C288.4271739 -0.3002206 311.51493126 0.5891591 334.4375 4.125 C335.1129184 4.22815521 335.78833679 4.33131042 336.48422241 4.43759155 C377.45070309 10.79377361 417.09048267 26.76736001 447 56 C447.92167969 56.85980469 448.84335938 57.71960938 449.79296875 58.60546875 C461.72511366 69.99906833 470.4552128 83.40736592 478 98 C478.32484375 98.62374512 478.6496875 99.24749023 478.984375 99.89013672 C483.62507032 108.92665461 486.84984745 118.08235343 489.44140625 127.89453125 C489.98293735 129.93568692 490.55174822 131.96756189 491.125 134 C495.48971308 149.90498256 496.33853465 165.88729937 496.26074219 182.31347656 C496.25000689 184.99827639 496.26072269 187.68240748 496.2734375 190.3671875 C496.28206019 201.71269652 495.48519109 212.75651109 494 224 C493.85506104 225.19028809 493.71012207 226.38057617 493.56079102 227.60693359 C487.31316386 278.1191422 468.07095701 327.66762521 437 368 C436.28972656 368.92425781 435.57945312 369.84851563 434.84765625 370.80078125 C430.81283175 375.93819145 426.5409888 380.82151906 422.13671875 385.64453125 C420.29940792 387.66993971 418.51959312 389.72831255 416.75 391.8125 C409.20266979 400.4681794 400.8719448 408.7090419 392 416 C391.49307617 416.42071777 390.98615234 416.84143555 390.46386719 417.27490234 C324.86584436 471.54303411 246.09440001 482.25340231 163.49047375 482.10139394 C159.45200462 482.09505462 155.41353437 482.09454837 151.37506104 482.09336853 C143.76128708 482.09028591 136.14752784 482.0821148 128.53376031 482.07201904 C119.85148067 482.06076143 111.16920025 482.05532338 102.48691511 482.05032361 C84.65793513 482.03992888 66.82896876 482.02239021 49 482 C48.86442531 483.03134473 48.72885061 484.06268946 48.58916759 485.12528706 C48.40862547 486.49110804 48.22803684 487.85692288 48.04740906 489.22273254 C47.91385679 490.24012032 47.91385679 490.24012032 47.77760649 491.27806139 C47.16299894 495.91588322 46.42993481 500.48648678 45.51953125 505.07421875 C45.38630966 505.75275909 45.25308807 506.43129944 45.11582947 507.13040161 C44.68559712 509.3169574 44.24908789 511.50220527 43.8125 513.6875 C43.49920166 515.27358832 43.18638795 516.85977243 42.87402344 518.44604492 C42.23044392 521.71275435 41.58484032 524.97905431 40.93798828 528.24511719 C40.07059213 532.63252151 39.21758297 537.02258201 38.37109375 541.4140625 C35.73554685 555.07590367 33.06136682 568.72919178 30.32421875 582.37109375 C30.08730316 583.55238358 29.85038757 584.7336734 29.60629272 585.95075989 C28.4350625 591.78789131 27.26114805 597.62446449 26.08300781 603.46020508 C22.56651611 620.94954975 19.2884831 638.46142344 16 656 C-31.19 656 -78.38 656 -127 656 C-125.7402239 645.92179117 -124.39846796 636.29517652 -122.25 626.4375 C-121.70673618 623.87403588 -121.16511999 621.31022212 -120.625 618.74609375 C-120.41922333 617.77269547 -120.41922333 617.77269547 -120.20928955 616.77963257 C-118.82179375 610.19934597 -117.52376728 603.60311299 -116.25 597 C-116.00950928 595.75404053 -115.76901855 594.50808105 -115.52124023 593.22436523 C-113.91722253 584.883486 -112.34822063 576.53613812 -110.78515625 568.1875 C-109.96153715 563.79155406 -109.13731804 559.39572115 -108.3125 555 C-108.10246338 553.88059021 -107.89242676 552.76118042 -107.67602539 551.60784912 C-103.24711309 528.03898775 -98.54028311 504.52865133 -93.80821228 481.01914978 C-91.37701527 468.92635963 -89.03591927 456.81704381 -86.71240234 444.703125 C-85.48742332 438.33558497 -84.24776002 431.97090226 -83.00891113 425.60604858 C-82.56405418 423.320485 -82.11939716 421.03488262 -81.67480469 418.74926758 C-81.08030497 415.69302138 -80.48573773 412.63678834 -79.89111328 409.58056641 C-79.00914432 405.04725802 -78.1275636 400.51387421 -77.24609375 395.98046875 C-77.10210144 395.23997284 -76.95810913 394.49947693 -76.80975342 393.73654175 C-76.07911732 389.9790358 -75.34870024 386.22148747 -74.61865234 382.46386719 C-73.33746477 375.87055317 -72.05532892 369.27744139 -70.76443481 362.6860199 C-70.07100647 359.1450646 -69.37891869 355.60384822 -68.6875 352.0625 C-68.54662964 351.34107819 -68.40575928 350.61965637 -68.26062012 349.87637329 C-66.37728454 340.21877588 -64.53409677 330.55415589 -62.72265625 320.8828125 C-62.52328964 319.81871658 -62.32392303 318.75462067 -62.11851501 317.65827942 C-61.91577469 316.57616684 -61.71303436 315.49405426 -61.50415039 314.37915039 C-56.47682116 287.54992662 -51.19442402 260.77849919 -45.80822754 234.01922607 C-43.37203846 221.90160381 -41.02708375 209.76729204 -38.69921875 197.62841797 C-37.95224975 193.75221223 -37.19619517 189.87782898 -36.4375 186.00390625 C-33.82075107 172.63178359 -31.22708054 159.25624222 -28.71875 145.86328125 C-28.51963013 144.80041901 -28.32051025 143.73755676 -28.11535645 142.64248657 C-27.91293335 141.56196014 -27.71051025 140.48143372 -27.50195312 139.36816406 C-22.48130179 112.57134781 -17.20515931 85.83234123 -11.82635498 59.10533142 C-8.19655595 41.05138588 -4.57365433 22.98996447 -1.54296875 4.82421875 C-1 2 -1 2 0 0 Z " fill="#000000" transform="translate(1671,401)"/>
<path d="M0 0 C46.53 0 93.06 0 141 0 C141 5.28991992 140.72888945 9.22733912 139.71484375 14.29296875 C139.57861099 14.98368973 139.44237823 15.67441071 139.30201721 16.38606262 C138.85324456 18.65446139 138.39532006 20.92091157 137.9375 23.1875 C137.61778745 24.79608457 137.29878995 26.4048114 136.98046875 28.01367188 C136.31900964 31.35391035 135.65448681 34.69351741 134.98779297 38.03271484 C133.61043402 44.94337013 132.27055042 51.86124769 130.93045044 58.77920532 C130.20541808 62.51981715 129.47755604 66.25987837 128.75 70 C128.45831999 71.49999741 128.16665332 72.99999741 127.875 74.5 C126.125 83.49999999 126.125 83.49999999 125.68756104 85.74966431 C125.39568003 87.25078117 125.10380992 88.75190015 124.81195068 90.25302124 C124.08615247 93.98595067 123.36016938 97.71884395 122.63378906 101.45166016 C121.28096049 108.40478012 119.92990533 115.35823007 118.58520508 122.31292725 C117.95830457 125.55462042 117.33038423 128.79611571 116.70239258 132.03759766 C116.40680175 133.56484352 116.11169609 135.09218339 115.81713867 136.61962891 C115.40541358 138.75448207 114.99228939 140.88905628 114.578125 143.0234375 C114.44696289 143.69993347 114.31580078 144.37642944 114.18066406 145.07342529 C113.09578624 150.61844988 111.89190363 156.13365328 110.63964844 161.64306641 C110.12393488 164.34957842 109.75323627 166.97527477 109.46002197 169.70980835 C109.3729813 170.51482977 109.28594063 171.31985119 109.19626236 172.1492672 C109.09911249 173.06537993 109.09911249 173.06537993 109 174 C109.70970695 173.99907821 110.41941391 173.99815641 111.15062714 173.99720669 C128.5337525 173.97498439 145.91687418 173.95850783 163.30001068 173.94818783 C171.70684829 173.94306269 180.11367634 173.93609342 188.52050781 173.92456055 C195.86007078 173.91449673 203.19962681 173.90811919 210.53919649 173.90591151 C214.41435895 173.90462395 218.28950158 173.90166555 222.16465759 173.89426994 C245.74828566 173.85107838 269.29146978 173.99885467 292.75 176.6875 C293.88240616 176.81529846 293.88240616 176.81529846 295.03768921 176.94567871 C333.07924406 181.30564564 372.59527588 190.84913467 401 218 C401.68707031 218.61230469 402.37414063 219.22460938 403.08203125 219.85546875 C420.69187685 236.14544426 429.4713739 262.58654362 431 286 C431.1573798 290.3968883 431.18505723 294.78806997 431.1875 299.1875 C431.19974609 300.29802734 431.21199219 301.40855469 431.22460938 302.55273438 C431.25627728 321.41625044 428.61213959 339.69209609 424.8125 358.125 C424.40649868 360.13956648 424.00173534 362.15438281 423.59814453 364.16943359 C422.78755547 368.21160818 421.97184959 372.252692 421.15185547 376.29296875 C419.6588198 383.66657917 418.22436812 391.05124009 416.79769897 398.43792725 C416.0944954 402.07634953 415.38676644 405.71389176 414.6796875 409.3515625 C414.40069265 410.78808137 414.12172129 412.22460481 413.84277344 413.66113281 C412.54286962 420.35429483 411.24109461 427.04709307 409.93951416 433.7399292 C409.20960455 437.49327222 408.47980781 441.24663719 407.75 445 C407.45833388 446.50000011 407.16666721 448.00000011 406.875 449.5 C406.730625 450.2425 406.58625 450.985 406.4375 451.75 C406 454 405.5625 456.25 405.125 458.5 C404.90841484 459.6138784 404.90841484 459.6138784 404.68745422 460.7502594 C404.39595213 462.24939706 404.10443806 463.7485324 403.81291199 465.24766541 C403.08112895 469.01084008 402.34955772 472.7740557 401.6184082 476.53735352 C400.33730828 483.13026186 399.05524917 489.72296582 397.76443481 496.3139801 C397.07100647 499.8549354 396.37891869 503.39615178 395.6875 506.9375 C395.54662964 507.65892181 395.40575928 508.38034363 395.26062012 509.12362671 C393.37728451 518.78122424 391.53411093 528.44584669 389.72265625 538.1171875 C389.52319901 539.18169128 389.32374176 540.24619507 389.11824036 541.34295654 C388.91542953 542.42538635 388.71261871 543.50781616 388.50366211 544.62304688 C388.08582494 546.85287399 387.66793714 549.08269162 387.25 551.3125 C387.04230988 552.42069092 386.83461975 553.52888184 386.62063599 554.6706543 C382.82730161 574.88083585 378.83866235 595.04900318 374.75488281 615.20239258 C374.53406036 616.29558807 374.31323792 617.38878357 374.08572388 618.5151062 C373.68409914 620.50217736 373.28077759 622.48890713 372.87496948 624.47512817 C370.75644423 634.95837315 368.91459101 645.46974946 367 656 C319.48 656 271.96 656 223 656 C224.12473778 644.75262224 224.12473778 644.75262224 225.1640625 639.5078125 C225.39536865 638.32743408 225.6266748 637.14705566 225.86499023 635.9309082 C226.24119507 634.04698364 226.24119507 634.04698364 226.625 632.125 C226.89248785 630.76726558 227.1594835 629.40943411 227.42602539 628.05151367 C227.99079806 625.1766765 228.55784409 622.30230109 229.12646484 619.42822266 C229.99540466 615.03066215 230.85293628 610.63093385 231.70703125 606.23046875 C231.91937157 605.13648521 231.91937157 605.13648521 232.13600159 604.020401 C232.42415984 602.53540949 232.71227097 601.05040883 233.00033569 599.56539917 C233.74137053 595.74652205 234.48384973 591.9279261 235.2265625 588.109375 C235.37471909 587.34757431 235.52287567 586.58577362 235.67552185 585.80088806 C236.52769006 581.42118315 237.38255511 577.04201639 238.24009705 572.6633606 C238.93202382 569.12996014 239.62259509 565.59629574 240.3125 562.0625 C240.52366959 560.98104706 240.52366959 560.98104706 240.73910522 559.87774658 C242.62253337 550.21969147 244.46581726 540.55461489 246.27734375 530.8828125 C246.47671036 529.81871658 246.67607697 528.75462067 246.88148499 527.65827942 C247.08422531 526.57616684 247.28696564 525.49405426 247.49584961 524.37915039 C251.45177548 503.26765849 255.51689398 482.18279539 259.75 461.125 C260.10351532 459.366185 260.10351532 459.366185 260.46417236 457.57183838 C261.37607814 453.03611001 262.28825523 448.50043632 263.20083618 443.96484375 C265.87642558 430.65762791 268.47423002 417.33652656 271 404 C271.26100494 402.62216339 271.26100494 402.62216339 271.52728271 401.2164917 C272.96063141 393.64525612 274.38766904 386.07284259 275.8125 378.5 C276.01385559 377.43178009 276.21521118 376.36356018 276.42266846 375.26296997 C276.9982777 372.20687138 277.57173392 369.15037672 278.14453125 366.09375 C278.4034742 364.72083046 278.4034742 364.72083046 278.66764832 363.32017517 C280.37141124 354.20123613 281.21309284 345.49191596 281.24023438 336.20385742 C281.2499257 334.20284071 281.28113037 332.20196615 281.3125 330.20117188 C281.35978819 318.37321226 279.43122802 307.13464359 271.25 298.05859375 C253.88623375 281.85007808 227.01080023 280.90375992 204.61230469 280.79467773 C203.33283463 280.78477814 202.05336456 280.77487854 200.73512268 280.76467896 C197.26695471 280.73794648 193.79877358 280.71676826 190.33056164 280.69667697 C186.6910743 280.67461901 183.05162606 280.64732844 179.41217041 280.62062073 C172.53835231 280.57095887 165.66451221 280.52592317 158.79065156 280.48259836 C150.95736468 280.43299754 143.12411706 280.37816509 135.29086828 280.32291877 C119.1939485 280.20950634 103.09699254 280.10258065 87 280 C86.9029436 281.01548888 86.9029436 281.01548888 86.80392647 282.05149269 C86.67343816 283.39131738 86.67343816 283.39131738 86.54031372 284.75820923 C86.45498446 285.64145182 86.36965519 286.5246944 86.28174019 287.43470192 C85.90561411 290.85940152 85.28776653 294.20730206 84.6171875 297.5859375 C84.48236969 298.27241364 84.34755188 298.95888977 84.20864868 299.66616821 C83.7683438 301.90330759 83.32165299 304.13912027 82.875 306.375 C82.56005477 307.96995499 82.2456117 309.56500921 81.93164062 311.16015625 C81.28025613 314.46750848 80.62673345 317.77442732 79.97167969 321.08105469 C78.60746167 327.97603284 77.26964226 334.87611564 75.93145752 341.77618408 C75.20554148 345.51769646 74.47766551 349.25882755 73.75 353 C73.45832408 354.4999982 73.16665741 355.9999982 72.875 357.5 C64.125 402.50000001 64.125 402.50000001 63.68743896 404.75028992 C63.39596377 406.2493212 63.10450054 407.74835481 62.81304932 409.24739075 C62.08105163 413.0122314 61.34884178 416.77703055 60.61621094 420.54174805 C59.3373099 427.114576 58.05931572 433.68756248 56.79017639 440.26228333 C52.84981887 460.67404255 48.79589152 481.06191714 44.70922852 501.44488525 C41.31379152 518.38394182 37.96672342 535.33010325 34.71240234 552.296875 C33.4872808 558.66515585 32.24739106 565.03056165 31.00836182 571.39614868 C30.56491772 573.67507495 30.12198548 575.95410013 29.67919922 578.2331543 C28.33542495 585.14798498 26.9891032 592.06228628 25.63224792 598.9745636 C25.02405377 602.07400558 24.41759716 605.17378656 23.81124878 608.27359009 C23.53111507 609.70326165 23.25019709 611.13277989 22.96829224 612.56210327 C20.1191316 627.01002134 17.5895834 641.49833294 15 656 C-31.86 656 -78.72 656 -127 656 C-126.3616387 649.61638702 -125.65885456 643.56167967 -124.3984375 637.3203125 C-124.24137833 636.52262955 -124.08431915 635.72494659 -123.92250061 634.90309143 C-123.41091137 632.3095341 -122.89293565 629.71729664 -122.375 627.125 C-122.01260075 625.29282373 -121.65071085 623.46054664 -121.28930664 621.62817383 C-120.55133605 617.88830145 -119.81132692 614.14884157 -119.06982422 610.40966797 C-117.64954972 603.23897501 -116.25554746 596.06322935 -114.86407471 588.88690186 C-114.14882721 585.19911485 -113.43168647 581.51169593 -112.71484375 577.82421875 C-112.4295149 576.35595894 -112.14419588 574.88769723 -111.85888672 573.41943359 C-110.55267276 566.69785491 -109.24554796 559.97645333 -107.93850708 553.2550354 C-107.20896886 549.50336391 -106.47948724 545.75168141 -105.75 542 C-105.45833361 540.49999995 -105.16666694 538.99999995 -104.875 537.5 C-104.730625 536.7575 -104.58625 536.015 -104.4375 535.25 C-99.33333333 509 -94.22916667 482.75 -89.125 456.5 C-88.98060989 455.7574144 -88.83621979 455.0148288 -88.68745422 454.2497406 C-88.39595213 452.75060294 -88.10443806 451.2514676 -87.81291199 449.75233459 C-87.08112895 445.98915992 -86.34955772 442.2259443 -85.6184082 438.46264648 C-84.33730828 431.86973814 -83.05524917 425.27703418 -81.76443481 418.6860199 C-81.07100647 415.1450646 -80.37891869 411.60384822 -79.6875 408.0625 C-79.54662964 407.34107819 -79.40575928 406.61965637 -79.26062012 405.87637329 C-77.37728454 396.21877588 -75.53409677 386.55415589 -73.72265625 376.8828125 C-73.52328964 375.81871658 -73.32392303 374.75462067 -73.11851501 373.65827942 C-72.91577469 372.57616684 -72.71303436 371.49405426 -72.50415039 370.37915039 C-68.54822451 349.26765841 -64.48309802 328.18279698 -60.25 307.125 C-60.01399078 305.95079498 -59.77798157 304.77658997 -59.53482056 303.56680298 C-58.62174168 299.02519961 -57.70838964 294.48365129 -56.79463196 289.94218445 C-52.36946112 267.93333816 -48.21832052 245.87341169 -44.0625 223.8125 C-38.13567431 192.35166629 -32.00089477 160.94020294 -25.70840454 129.55044556 C-22.31322161 112.61294801 -18.96642612 95.66834669 -15.71240234 78.703125 C-14.05218657 70.07318912 -12.36784214 61.44790793 -10.68798828 52.82177734 C-10.39483246 51.31608546 -10.10170106 49.81038882 -9.80859375 48.3046875 C-9.66234558 47.55343597 -9.51609741 46.80218445 -9.36541748 46.02816772 C-8.41575457 41.14650699 -7.4709399 36.26392819 -6.52909851 31.38075256 C-5.88424073 28.03801432 -5.23793228 24.69555726 -4.59152222 21.3531189 C-4.28246759 19.75285598 -3.974129 18.1524546 -3.66653442 16.5519104 C-3.24043552 14.33503461 -2.81188824 12.118645 -2.3828125 9.90234375 C-2.01760498 8.00730103 -2.01760498 8.00730103 -1.64501953 6.07397461 C-1 3 -1 3 0 0 Z " fill="#000000" transform="translate(1164,227)"/>
<path d="M0 0 C15.13569951 -0.04705442 30.27139561 -0.08215058 45.40715218 -0.10362434 C52.43747552 -0.11386708 59.467753 -0.12779051 66.49804688 -0.15087891 C73.29971619 -0.17320552 80.10133814 -0.18461385 86.90304184 -0.18975449 C89.48057676 -0.19341162 92.0581095 -0.20055125 94.63562393 -0.21146011 C114.15359873 -0.29067963 133.55125765 0.31147487 152.8125 3.75 C154.23357056 4.00269653 154.23357056 4.00269653 155.68334961 4.26049805 C164.49401142 5.9287055 172.75905671 8.48229329 181 12 C181.62729004 12.26683594 182.25458008 12.53367187 182.90087891 12.80859375 C199.4329741 20.03139573 212.01074903 31.45605436 219.01171875 48.296875 C235.49526336 93.38230135 220.5653689 151.13756037 201.35424805 193.12939453 C190.75027653 215.59154632 174.44710509 236.10279511 153 249 C152.41009277 249.36399902 151.82018555 249.72799805 151.21240234 250.10302734 C117.06047944 270.83844412 75.75723685 274.36369447 36.76953125 274.1953125 C34.19593924 274.19157318 31.62234579 274.18873056 29.04875183 274.18673706 C23.02154521 274.17994149 16.99442821 274.16426071 10.9672572 274.14403808 C4.09150459 274.12148182 -2.78425208 274.11063669 -9.66003263 274.10064721 C-23.77339482 274.07988689 -37.88669473 274.04483585 -52 274 C-52.03658194 269.10799847 -51.94799018 264.76874872 -50.8984375 259.96484375 C-50.53927246 258.28358398 -50.53927246 258.28358398 -50.17285156 256.56835938 C-49.90956055 255.37017578 -49.64626953 254.17199219 -49.375 252.9375 C-48.81346185 250.30111475 -48.25350869 247.66443435 -47.6953125 245.02734375 C-47.55194458 244.35367767 -47.40857666 243.6800116 -47.26086426 242.9859314 C-45.84926726 236.33831528 -44.53526009 229.67316859 -43.25 223 C-42.8938562 221.15269287 -42.8938562 221.15269287 -42.53051758 219.26806641 C-40.22778794 207.28490434 -37.97795656 195.29165263 -35.71939087 183.30010986 C-30.74094239 156.86819122 -25.71046566 130.45070035 -20.40625 104.08203125 C-19.45818061 99.36721819 -18.51027749 94.65237174 -17.5625 89.9375 C-17.32611816 88.76225769 -17.08973633 87.58701538 -16.84619141 86.37615967 C-13.14418328 67.95132098 -9.59530795 49.5035701 -6.24720764 31.01109314 C-6.08441818 30.12571365 -5.92162872 29.24033417 -5.75390625 28.328125 C-5.63135184 27.66029181 -5.50879744 26.99245861 -5.38252926 26.30438805 C-4.303952 20.48957092 -3.12045591 14.70148789 -1.89038086 8.91699219 C-1.70751274 8.05286713 -1.52464462 7.18874207 -1.33623505 6.2984314 C-0.89175867 4.19875605 -0.44601503 2.09934904 0 0 Z " fill="#777BB3" transform="translate(678,505)"/>
<path d="M0 0 C15.54412313 -0.047025 31.08824084 -0.08213654 46.63241863 -0.10362434 C53.85221951 -0.11387316 61.07197581 -0.12780873 68.29174805 -0.15087891 C74.59520608 -0.17101122 80.89863179 -0.18376268 87.20212108 -0.18817699 C90.5300632 -0.19075137 93.85784067 -0.19776557 97.18576622 -0.21146011 C116.61305269 -0.28813661 135.9876632 0.03556214 155.0625 4.125 C156.54484131 4.43932983 156.54484131 4.43932983 158.05712891 4.76000977 C179.08813326 9.51497735 200.19946892 18.6753701 212.40625 37.2734375 C230.66326437 68.5072513 225.61088605 108.93518256 217.53710938 142.71679688 C216.98822189 145.05006768 216.48463588 147.39024069 215.984375 149.734375 C207.55372267 187.76598439 187.89818813 225.5501611 154.875 247.5 C130.76071773 262.29816485 102.17052797 270.68755996 74 273 C73.08221268 273.08263596 72.16442535 273.16527191 71.21882629 273.25041199 C58.50084663 274.25699047 45.78521174 274.1259606 33.03515625 274.09765625 C30.54552743 274.0957877 28.05589824 274.09436586 25.56626892 274.09336853 C19.06119749 274.08957778 12.55614892 274.07977747 6.05108643 274.06866455 C-0.60591362 274.05837584 -7.26291596 274.05385503 -13.91992188 274.04882812 C-26.94662425 274.03815163 -39.9733109 274.02131363 -53 274 C-52.85572564 272.27781158 -52.70784981 270.55592469 -52.55851746 268.83416748 C-52.47656726 267.87525982 -52.39461706 266.91635216 -52.31018353 265.92838669 C-51.81461812 261.24984313 -50.87992817 256.68135534 -49.92578125 252.078125 C-49.72150513 251.06801361 -49.517229 250.05790222 -49.3067627 249.0171814 C-48.87174633 246.86927265 -48.43411922 244.72189122 -47.99404907 242.57501221 C-47.06989136 238.06640704 -46.15848191 233.55525288 -45.2462616 229.04421997 C-44.79185844 226.79788991 -44.33679467 224.55169339 -43.88105774 222.30563354 C-42.14661783 213.75375188 -40.4583898 205.19436102 -38.8125 196.625 C-38.58272461 195.43060303 -38.35294922 194.23620605 -38.11621094 193.00561523 C-37.653347 190.59836473 -37.19078186 188.19105676 -36.72851562 185.78369141 C-35.35010438 178.6246373 -33.95529525 171.46876693 -32.5625 164.3125 C-32.26666441 162.79183303 -31.97084736 161.27116246 -31.67504883 159.75048828 C-31.0804661 156.6938355 -30.48581645 153.63719576 -29.89111328 150.58056641 C-29.00914432 146.04725802 -28.1275636 141.51387421 -27.24609375 136.98046875 C-27.10210144 136.23997284 -26.95810913 135.49947693 -26.80975342 134.73654175 C-26.07911732 130.9790358 -25.34870024 127.22148747 -24.61865234 123.46386719 C-23.33750035 116.87073629 -22.05540222 110.27780719 -20.76454163 103.68656921 C-20.07107868 100.14543062 -19.37896691 96.60402885 -18.6875 93.0625 C-18.54895599 92.3530423 -18.41041199 91.64358459 -18.26766968 90.91262817 C-16.29961759 80.82118718 -14.37632203 70.72170556 -12.4765625 60.6171875 C-12.14695274 58.8648304 -12.14695274 58.8648304 -11.8106842 57.07707214 C-10.72098677 51.28059182 -9.63416738 45.48359102 -8.55151367 39.68579102 C-6.69808641 29.78626184 -4.81792508 19.89486087 -2.76171875 10.03515625 C-2.59783157 9.24338486 -2.4339444 8.45161346 -2.26509094 7.635849 C-1.12303565 2.24607129 -1.12303565 2.24607129 0 0 Z " fill="#777BB3" transform="translate(1794,505)"/>
<path d="M0 0 C15.13569951 -0.04705442 30.27139561 -0.08215058 45.40715218 -0.10362434 C52.43747552 -0.11386708 59.467753 -0.12779051 66.49804688 -0.15087891 C73.29971619 -0.17320552 80.10133814 -0.18461385 86.90304184 -0.18975449 C89.48057676 -0.19341162 92.0581095 -0.20055125 94.63562393 -0.21146011 C114.15359873 -0.29067963 133.55125765 0.31147487 152.8125 3.75 C154.23357056 4.00269653 154.23357056 4.00269653 155.68334961 4.26049805 C164.49401142 5.9287055 172.75905671 8.48229329 181 12 C181.62729004 12.26683594 182.25458008 12.53367187 182.90087891 12.80859375 C199.4329741 20.03139573 212.01074903 31.45605436 219.01171875 48.296875 C235.49526336 93.38230135 220.5653689 151.13756037 201.35424805 193.12939453 C190.75027653 215.59154632 174.44710509 236.10279511 153 249 C152.41009277 249.36399902 151.82018555 249.72799805 151.21240234 250.10302734 C117.06047944 270.83844412 75.75723685 274.36369447 36.76953125 274.1953125 C34.19593924 274.19157318 31.62234579 274.18873056 29.04875183 274.18673706 C23.02154521 274.17994149 16.99442821 274.16426071 10.9672572 274.14403808 C4.09150459 274.12148182 -2.78425208 274.11063669 -9.66003263 274.10064721 C-23.77339482 274.07988689 -37.88669473 274.04483585 -52 274 C-52.03658194 269.10799847 -51.94799018 264.76874872 -50.8984375 259.96484375 C-50.53927246 258.28358398 -50.53927246 258.28358398 -50.17285156 256.56835938 C-49.90956055 255.37017578 -49.64626953 254.17199219 -49.375 252.9375 C-48.81346185 250.30111475 -48.25350869 247.66443435 -47.6953125 245.02734375 C-47.55194458 244.35367767 -47.40857666 243.6800116 -47.26086426 242.9859314 C-45.84926726 236.33831528 -44.53526009 229.67316859 -43.25 223 C-42.8938562 221.15269287 -42.8938562 221.15269287 -42.53051758 219.26806641 C-40.22778794 207.28490434 -37.97795656 195.29165263 -35.71939087 183.30010986 C-30.74094239 156.86819122 -25.71046566 130.45070035 -20.40625 104.08203125 C-19.45818061 99.36721819 -18.51027749 94.65237174 -17.5625 89.9375 C-17.32611816 88.76225769 -17.08973633 87.58701538 -16.84619141 86.37615967 C-13.14418328 67.95132098 -9.59530795 49.5035701 -6.24720764 31.01109314 C-6.08441818 30.12571365 -5.92162872 29.24033417 -5.75390625 28.328125 C-5.63135184 27.66029181 -5.50879744 26.99245861 -5.38252926 26.30438805 C-4.303952 20.48957092 -3.12045591 14.70148789 -1.89038086 8.91699219 C-1.70751274 8.05286713 -1.52464462 7.18874207 -1.33623505 6.2984314 C-0.89175867 4.19875605 -0.44601503 2.09934904 0 0 Z M22 27 C21.04964777 31.8577232 20.10088676 36.71575377 19.1534729 41.5740509 C18.83231488 43.21982303 18.51075443 44.86551669 18.18875122 46.51112366 C16.15855118 56.8882512 14.19905754 67.27182981 12.375 77.6875 C10.70625784 87.16187332 8.92164855 96.60230719 7.01074219 106.03076172 C5.16966048 115.11597674 3.390026 124.21227271 1.625 133.3125 C1.32568519 134.85481802 1.02636877 136.39713572 0.72705078 137.93945312 C0.12018991 141.06717108 -0.48636024 144.19494913 -1.09277344 147.32275391 C-1.97967468 151.89644013 -2.86841058 156.46976822 -3.7578125 161.04296875 C-3.90187531 161.78375168 -4.04593811 162.52453461 -4.19436646 163.2877655 C-4.91795784 167.0082063 -5.64177131 170.72860384 -6.36572266 174.44897461 C-7.71867998 181.40299634 -9.06992196 188.35733685 -10.41479492 195.31292725 C-11.04169543 198.55462042 -11.66961577 201.79611571 -12.29760742 205.03759766 C-12.59319825 206.56484352 -12.88830391 208.09218339 -13.18286133 209.61962891 C-13.59458634 211.75448166 -14.00795115 213.88901009 -14.421875 216.0234375 C-14.61753052 217.03818146 -14.61753052 217.03818146 -14.81713867 218.07342529 C-15.89914681 223.62790227 -17.14581102 229.13879979 -18.45800781 234.64306641 C-19.12845161 238.79558994 -19.10996158 242.80489963 -19 247 C-8.80945929 247.09400406 1.38097303 247.16440915 11.57186413 247.20724869 C16.3074274 247.22784249 21.04268741 247.25562074 25.77807617 247.30175781 C53.65871638 247.56612919 81.0489843 247.14586879 108 239 C109.22976563 238.64292969 110.45953125 238.28585937 111.7265625 237.91796875 C136.3440962 230.29825594 156.41684915 216.25362134 170 194 C170.58515381 193.05930664 170.58515381 193.05930664 171.18212891 192.09960938 C191.30726646 159.06293572 205.04638765 106.20628629 196.82177734 67.92382812 C193.9322063 56.65366993 189.1428663 47.31548172 179 41.1875 C146.8034536 24.21113917 110.09353401 26.45315668 74.79406738 26.7253418 C68.82631164 26.76686305 62.85848471 26.78465603 56.890625 26.8046875 C45.26023393 26.84710131 33.63015277 26.91502398 22 27 Z " fill="#FDFDFD" transform="translate(678,505)"/>
<path d="M0 0 C15.54412313 -0.047025 31.08824084 -0.08213654 46.63241863 -0.10362434 C53.85221951 -0.11387316 61.07197581 -0.12780873 68.29174805 -0.15087891 C74.59520608 -0.17101122 80.89863179 -0.18376268 87.20212108 -0.18817699 C90.5300632 -0.19075137 93.85784067 -0.19776557 97.18576622 -0.21146011 C116.61305269 -0.28813661 135.9876632 0.03556214 155.0625 4.125 C156.54484131 4.43932983 156.54484131 4.43932983 158.05712891 4.76000977 C179.08813326 9.51497735 200.19946892 18.6753701 212.40625 37.2734375 C230.66326437 68.5072513 225.61088605 108.93518256 217.53710938 142.71679688 C216.98822189 145.05006768 216.48463588 147.39024069 215.984375 149.734375 C207.55372267 187.76598439 187.89818813 225.5501611 154.875 247.5 C130.76071773 262.29816485 102.17052797 270.68755996 74 273 C73.08221268 273.08263596 72.16442535 273.16527191 71.21882629 273.25041199 C58.50084663 274.25699047 45.78521174 274.1259606 33.03515625 274.09765625 C30.54552743 274.0957877 28.05589824 274.09436586 25.56626892 274.09336853 C19.06119749 274.08957778 12.55614892 274.07977747 6.05108643 274.06866455 C-0.60591362 274.05837584 -7.26291596 274.05385503 -13.91992188 274.04882812 C-26.94662425 274.03815163 -39.9733109 274.02131363 -53 274 C-52.85572564 272.27781158 -52.70784981 270.55592469 -52.55851746 268.83416748 C-52.47656726 267.87525982 -52.39461706 266.91635216 -52.31018353 265.92838669 C-51.81461812 261.24984313 -50.87992817 256.68135534 -49.92578125 252.078125 C-49.72150513 251.06801361 -49.517229 250.05790222 -49.3067627 249.0171814 C-48.87174633 246.86927265 -48.43411922 244.72189122 -47.99404907 242.57501221 C-47.06989136 238.06640704 -46.15848191 233.55525288 -45.2462616 229.04421997 C-44.79185844 226.79788991 -44.33679467 224.55169339 -43.88105774 222.30563354 C-42.14661783 213.75375188 -40.4583898 205.19436102 -38.8125 196.625 C-38.58272461 195.43060303 -38.35294922 194.23620605 -38.11621094 193.00561523 C-37.653347 190.59836473 -37.19078186 188.19105676 -36.72851562 185.78369141 C-35.35010438 178.6246373 -33.95529525 171.46876693 -32.5625 164.3125 C-32.26666441 162.79183303 -31.97084736 161.27116246 -31.67504883 159.75048828 C-31.0804661 156.6938355 -30.48581645 153.63719576 -29.89111328 150.58056641 C-29.00914432 146.04725802 -28.1275636 141.51387421 -27.24609375 136.98046875 C-27.10210144 136.23997284 -26.95810913 135.49947693 -26.80975342 134.73654175 C-26.07911732 130.9790358 -25.34870024 127.22148747 -24.61865234 123.46386719 C-23.33750035 116.87073629 -22.05540222 110.27780719 -20.76454163 103.68656921 C-20.07107868 100.14543062 -19.37896691 96.60402885 -18.6875 93.0625 C-18.54895599 92.3530423 -18.41041199 91.64358459 -18.26766968 90.91262817 C-16.29961759 80.82118718 -14.37632203 70.72170556 -12.4765625 60.6171875 C-12.14695274 58.8648304 -12.14695274 58.8648304 -11.8106842 57.07707214 C-10.72098677 51.28059182 -9.63416738 45.48359102 -8.55151367 39.68579102 C-6.69808641 29.78626184 -4.81792508 19.89486087 -2.76171875 10.03515625 C-2.59783157 9.24338486 -2.4339444 8.45161346 -2.26509094 7.635849 C-1.12303565 2.24607129 -1.12303565 2.24607129 0 0 Z M22 27 C21.36228805 29.68351199 20.726221 32.36739672 20.09106445 35.05151367 C19.82320507 36.17755634 19.82320507 36.17755634 19.54993439 37.32634735 C17.90476538 44.2886536 16.51253089 51.28189746 15.1875 58.3125 C14.93237066 59.65095607 14.67682307 60.98933248 14.42089844 62.32763672 C14.01909809 64.42896271 13.61754887 66.5303329 13.21731567 68.63195801 C12.29514142 73.4721751 11.3577877 78.30923756 10.41015625 83.14453125 C7.80105013 96.46689657 5.217829 109.79319905 2.71875 123.13671875 C2.51953949 124.20003418 2.32032898 125.26334961 2.11508179 126.35888672 C1.9125882 127.43976563 1.7100946 128.52064453 1.50146484 129.63427734 C-3.12317313 154.3172912 -7.93760615 178.95618014 -12.90771484 203.57197571 C-13.74328348 207.71677058 -14.57420146 211.86247993 -15.40222168 216.00878906 C-15.80314268 218.01494962 -16.20558595 220.02080651 -16.60949707 222.02636719 C-17.18670043 224.90167106 -17.75477724 227.7786314 -18.3203125 230.65625 C-18.49142548 231.50127075 -18.66253845 232.3462915 -18.83883667 233.21691895 C-18.99272858 234.0096521 -19.14662048 234.80238525 -19.30517578 235.61914062 C-19.44013458 236.29996704 -19.57509338 236.98079346 -19.71414185 237.68225098 C-20.09815584 240.7958514 -20.04217716 243.86661934 -20 247 C-9.5408728 247.0701542 0.91819653 247.12313801 11.37751293 247.15543652 C16.23654298 247.17095439 21.09540964 247.19193179 25.9543457 247.22631836 C30.66173674 247.25941602 35.36897273 247.27695665 40.07647133 247.28463173 C41.85380805 247.29008643 43.63113833 247.30073099 45.40840721 247.31719017 C80.46198095 247.6282871 121.44804878 241.17862563 149 218 C149.85078125 217.36578125 149.85078125 217.36578125 150.71875 216.71875 C167.17471624 203.98866291 176.10713036 182.99970992 183.19238281 164.13378906 C183.84071079 162.42085481 184.52075868 160.71994158 185.2109375 159.0234375 C190.0683302 146.7828079 192.55380321 133.38372314 194.75 120.4375 C194.92317749 119.42320923 194.92317749 119.42320923 195.09985352 118.38842773 C198.55391298 96.7501462 201.41412808 69.27764845 188.75390625 50.14453125 C175.45775414 33.88709805 151.58251546 30.53098905 132 28 C131.32672448 27.91049859 130.65344896 27.82099718 129.95977116 27.72878361 C124.189459 27.01824971 118.51633989 26.86357394 112.70678711 26.88647461 C111.72036224 26.88632858 110.73393738 26.88618256 109.71762085 26.8860321 C106.48750538 26.88672357 103.25744903 26.89447979 100.02734375 26.90234375 C97.77576224 26.90421066 95.52418033 26.90563327 93.27259827 26.90663147 C87.36913923 26.91043518 81.46570511 26.920247 75.56225586 26.93133545 C69.52913754 26.94159585 63.49601517 26.94613898 57.46289062 26.95117188 C45.64191619 26.96187132 33.82096017 26.97892178 22 27 Z " fill="#FDFDFD" transform="translate(1794,505)"/>
</svg>
