<?xml version="1.0" encoding="UTF-8"?>
<svg version="1.1" xmlns="http://www.w3.org/2000/svg" width="1280" height="782">
<path d="M0 0 C1.36366699 0.66854004 1.36366699 0.66854004 2.75488281 1.35058594 C16.82092034 8.30485017 30.0649067 16.12609242 43 25 C43.64759277 25.44053711 44.29518555 25.88107422 44.96240234 26.33496094 C54.74106257 33.01752362 63.91174538 40.41423908 73 48 C73.598125 48.49757813 74.19625 48.99515625 74.8125 49.5078125 C95.42154986 66.71268895 114.085936 85.98866203 133 105 C137.65918648 109.68296426 142.32011317 114.36417152 146.98526001 119.04119873 C148.82845185 120.89079023 150.66857031 122.74340024 152.50854492 124.59619141 C158.17038369 130.2826667 163.87009025 135.81256164 170 141 C171.48190724 142.37204591 172.96147273 143.74663049 174.4375 145.125 C213.40112212 180.10910584 260.74561381 198.26017404 313.3125 195.89599609 C333.41025229 194.74456237 353.53083904 190.0248933 372 182 C372.66870117 181.71431152 373.33740234 181.42862305 374.02636719 181.13427734 C390.72779618 173.91467317 405.89384039 164.45420161 420 153 C421.32644531 151.96166016 421.32644531 151.96166016 422.6796875 150.90234375 C442.50687099 135.16414914 459.33030041 116.6233569 474.25 96.23828125 C475.11625 95.13033203 475.11625 95.13033203 476 94 C476.33 94 476.66 94 477 94 C476.44572116 102.03704317 474.35836077 109.31762504 472 117 C471.79959106 117.6571701 471.59918213 118.31434021 471.3927002 118.99142456 C457.52406793 164.39031699 438.07595805 207.8997228 408 245 C407.2575 245.94617188 406.515 246.89234375 405.75 247.8671875 C392.56389865 264.13849846 377.05801306 279.82468601 360 292 C358.85554596 292.84861102 357.71234599 293.69891553 356.5703125 294.55078125 C348.37839454 300.60318991 339.87423292 306.00684627 331 311 C329.85797119 311.64388672 329.85797119 311.64388672 328.69287109 312.30078125 C288.71956701 334.58756416 243.45763475 346.18721871 198 350 C197.02039307 350.08685059 196.04078613 350.17370117 195.03149414 350.26318359 C182.55559039 351.24130709 170.07020368 351.24254633 157.5625 351.25 C156.38836548 351.25100708 155.21423096 351.25201416 154.0045166 351.25305176 C135.14193803 351.2421348 116.70686957 350.52076439 98 348 C96.40575195 347.79914795 96.40575195 347.79914795 94.77929688 347.59423828 C60.24618168 343.16209453 26.34241794 333.10428297 -5 318 C-5.7027002 317.66645508 -6.40540039 317.33291016 -7.12939453 316.98925781 C-34.3270077 304.04414712 -59.38763386 286.85079843 -82 267 C-82.7321875 266.36707031 -83.464375 265.73414063 -84.21875 265.08203125 C-86.15765267 263.40087953 -88.08175733 261.70467314 -90 260 C-90.71929687 259.36191406 -91.43859375 258.72382812 -92.1796875 258.06640625 C-94.79987055 255.72542303 -97.40036758 253.3637917 -100 251 C-100.92232422 250.16597656 -101.84464844 249.33195312 -102.79492188 248.47265625 C-116.98325268 235.49935716 -130.38299919 221.6890947 -143.9375 208.0625 C-148.4393283 203.53689395 -152.94289382 199.01304258 -157.4506855 194.49337578 C-159.23183075 192.70583273 -161.0099002 190.91527074 -162.78782654 189.12452698 C-168.35077366 183.53639635 -173.96587559 178.08410265 -180 173 C-181.01054361 172.11230123 -182.01971493 171.22303723 -183.02734375 170.33203125 C-223.73586365 135.08774221 -272.03971185 118.33774135 -326.03710938 122.21826172 C-350.5251301 124.65592508 -373.37622303 132.50452115 -395 144 C-396.13824219 144.59296875 -397.27648437 145.1859375 -398.44921875 145.796875 C-412.87852532 153.6399824 -426.0776214 163.73997576 -438 175 C-439.26661866 176.08825807 -440.53740846 177.17168185 -441.8125 178.25 C-453.93298417 188.81847095 -464.35442227 200.84685328 -474.3828125 213.36645508 C-477.11032757 216.7558177 -479.829033 220.00648371 -483 223 C-482.38250944 215.91601112 -480.55400475 209.41826403 -478.5 202.625 C-478.14325195 201.44035156 -477.78650391 200.25570312 -477.41894531 199.03515625 C-466.06623026 161.76584279 -451.32894254 125.16034261 -429 93 C-428.56558594 92.37029297 -428.13117188 91.74058594 -427.68359375 91.09179688 C-420.44804571 80.64884918 -412.72024679 70.75917212 -404.15234375 61.37109375 C-402.23144623 59.25496889 -400.36010568 57.10690731 -398.5 54.9375 C-392.14863023 47.6829538 -385.31631426 41.24402965 -377.78125 35.23046875 C-376.02833178 33.82468743 -374.29568625 32.3928724 -372.59375 30.92578125 C-295.16429675 -35.35481085 -176.23246256 -45.09847276 0 0 Z " fill="#37BCF8" transform="translate(483,417)"/>
<path d="M0 0 C3.96610366 0.0031477 7.93144933 -0.0203571 11.89746094 -0.0456543 C105.24892103 -0.27710479 189.42831158 33.25275781 257.54980469 96.61254883 C259.02372277 97.9809359 260.50568064 99.32129345 262.04264832 100.61871338 C268.58134087 106.15203261 274.55039704 112.25286004 280.58248901 118.32397461 C282.5991965 120.35358798 284.61913565 122.37993641 286.63989258 124.40551758 C291.65525288 129.43416084 296.66512352 134.46826174 301.6751709 139.50219727 C305.91987632 143.76671656 310.16668086 148.02912485 314.41622925 152.28881836 C316.39455958 154.27357369 318.36982473 156.26134406 320.3449707 158.24926758 C326.22733245 164.15540828 332.12157869 169.93818119 338.49902344 175.31567383 C340.00172412 176.7085993 341.50212213 178.10401795 342.99902344 179.50317383 C380.54742963 213.26807649 428.0144264 231.65207364 478.72070312 229.48413086 C494.01968558 228.55651242 508.88379083 225.91250061 523.49902344 221.31567383 C524.25570312 221.07896973 525.01238281 220.84226563 525.79199219 220.59838867 C546.43355954 213.96172175 565.32781708 203.4731471 582.49902344 190.31567383 C583.46066406 189.58477539 584.42230469 188.85387695 585.41308594 188.10083008 C590.51663739 184.11121168 595.34015334 179.83720529 600.12402344 175.47192383 C602.26288902 173.53005903 604.43321728 171.63589787 606.62402344 169.75317383 C613.47108245 163.77405188 619.61514098 157.23242717 625.49902344 150.31567383 C626.12429932 149.58574219 626.12429932 149.58574219 626.76220703 148.84106445 C632.51305692 142.12731009 638.16098279 135.36625994 643.49902344 128.31567383 C644.89613634 132.10398817 644.08369715 134.69275933 642.97949219 138.50317383 C642.62209961 139.74470215 642.26470703 140.98623047 641.89648438 142.26538086 C641.49434879 143.61583187 641.09099581 144.96592087 640.68652344 146.31567383 C640.48273071 147.00417419 640.27893799 147.69267456 640.06896973 148.40203857 C626.89228883 192.83649264 608.55478703 236.76897119 579.49902344 273.31567383 C578.85964844 274.14583008 578.22027344 274.97598633 577.56152344 275.83129883 C573.06222711 281.60055782 568.21313603 287.00626569 563.23339844 292.35864258 C560.70986596 295.0724133 558.25989436 297.8463179 555.81152344 300.62817383 C551.96608978 304.90087789 547.90407072 308.63463951 543.49902344 312.31567383 C542.58894531 313.11360352 541.67886719 313.9115332 540.74121094 314.73364258 C512.37915128 339.5025667 479.16521193 356.62824752 443.49902344 368.31567383 C442.62632812 368.6028125 441.75363281 368.88995117 440.85449219 369.18579102 C408.94424386 379.47101491 374.08289035 384.38551066 340.63183594 384.51879883 C339.4463063 384.52581314 338.26077667 384.53282745 337.0393219 384.54005432 C333.2341833 384.55745921 329.42920038 384.56390667 325.62402344 384.56567383 C324.32357086 384.56634857 323.02311829 384.56702332 321.68325806 384.56771851 C302.4396083 384.55184397 283.56133935 384.16647433 264.49902344 381.31567383 C263.28698242 381.13875 262.07494141 380.96182617 260.82617188 380.77954102 C222.73476799 375.07026769 186.54375467 364.09118836 152.34912109 346.27319336 C150.54707604 345.34054349 148.73392038 344.43375633 146.91699219 343.53051758 C122.52193188 331.20525591 99.96836508 313.77002335 79.81933594 295.42114258 C77.7974816 293.58649697 75.75223821 291.78798597 73.68652344 290.00317383 C63.49832062 281.10253054 53.78782911 271.74478628 44.25729942 262.14911461 C42.32847747 260.20724035 40.3962957 258.26876114 38.46333313 256.33100891 C34.36818962 252.22458801 30.27705651 248.11418667 26.18652344 244.00317383 C21.4211538 239.21405766 16.6540755 234.42666672 11.882761 229.64347267 C9.99304714 227.74734949 8.10640364 225.84820907 6.21989441 223.94889832 C0.48391053 218.18842359 -5.26647259 212.54345289 -11.50097656 207.31567383 C-12.53461312 206.41587643 -13.5671989 205.51487026 -14.59863281 204.61254883 C-27.07950304 193.89116887 -40.10665528 184.31910922 -54.50097656 176.31567383 C-55.12020996 175.96907715 -55.73944336 175.62248047 -56.37744141 175.26538086 C-73.59402286 165.77195897 -92.16348152 160.43751317 -111.50097656 157.31567383 C-112.20077637 157.19853027 -112.90057617 157.08138672 -113.62158203 156.96069336 C-149.54948055 151.14971626 -187.03484065 157.06749832 -219.50097656 173.31567383 C-220.21157227 173.66355957 -220.92216797 174.01144531 -221.65429688 174.36987305 C-236.43487897 181.64692845 -249.89742112 190.70929717 -262.50097656 201.31567383 C-263.01305664 201.73896973 -263.52513672 202.16226563 -264.05273438 202.59838867 C-270.96099841 208.31230851 -277.59337642 214.22913427 -283.93847656 220.56567383 C-284.4930957 221.1194873 -285.04771484 221.67330078 -285.61914062 222.24389648 C-293.09963618 229.82535854 -299.80173432 238.05524219 -306.51464844 246.31176758 C-309.37464856 249.80906739 -312.20712085 253.20980492 -315.50097656 256.31567383 C-314.88068369 249.28002322 -313.09527707 242.81682612 -311.06347656 236.06567383 C-310.71003174 234.88763184 -310.35658691 233.70958984 -309.99243164 232.49584961 C-294.46072519 181.54645599 -271.73942988 133.28390733 -235.62597656 93.65942383 C-233.67602932 91.50874672 -231.77071527 89.32742412 -229.87597656 87.12817383 C-224.22474297 80.65848571 -218.08125208 74.8305714 -211.50097656 69.31567383 C-210.74349121 68.67952148 -210.74349121 68.67952148 -209.97070312 68.03051758 C-195.2444754 55.7429737 -179.44070858 45.29449523 -162.50097656 36.31567383 C-161.86514648 35.97584473 -161.22931641 35.63601562 -160.57421875 35.28588867 C-129.6045792 18.8583097 -95.68213172 9.51736916 -61.18847656 4.06567383 C-59.76160522 3.83895996 -59.76160522 3.83895996 -58.3059082 3.60766602 C-55.04221183 3.12383183 -51.77711111 2.70729625 -48.50097656 2.31567383 C-47.77162903 2.22847076 -47.04228149 2.1412677 -46.29083252 2.05142212 C-30.86740288 0.27296913 -15.51512752 -0.02561191 0 0 Z " fill="#37BDF8" transform="translate(635.5009765625,-0.315673828125)"/>
</svg>
